<mxfile host="Electron" modified="2024-04-17T15:05:05.637Z" agent="Mozilla/5.0 (Windows NT 10.0; Win64; x64) AppleWebKit/537.36 (KHTML, like Gecko) draw.io/24.2.5 Chrome/120.0.6099.109 Electron/28.1.0 Safari/537.36" etag="2bUJkXZp5DAQqxwAF3or" version="24.2.5" type="device">
  <diagram name="Page-1" id="9r-CjQkVQwA65eh49aDy">
    <mxGraphModel dx="1323" dy="736" grid="1" gridSize="10" guides="1" tooltips="1" connect="1" arrows="1" fold="1" page="1" pageScale="1" pageWidth="850" pageHeight="1100" math="0" shadow="0">
      <root>
        <mxCell id="0" />
        <mxCell id="1" parent="0" />
        <mxCell id="fhOW-cIPzGvx0NEOiK8O-1" value="Slave Node 1" style="swimlane;fontFamily=Comic Sans MS;" vertex="1" parent="1">
          <mxGeometry x="80" y="400" width="201" height="200" as="geometry" />
        </mxCell>
        <mxCell id="fhOW-cIPzGvx0NEOiK8O-5" value="&lt;font face=&quot;Comic Sans MS&quot;&gt;vllm instance 1&lt;/font&gt;" style="rounded=0;whiteSpace=wrap;html=1;" vertex="1" parent="fhOW-cIPzGvx0NEOiK8O-1">
          <mxGeometry x="10" y="120" width="120" height="40" as="geometry" />
        </mxCell>
        <mxCell id="fhOW-cIPzGvx0NEOiK8O-6" value="&lt;font face=&quot;Comic Sans MS&quot;&gt;vllm instance 0&lt;/font&gt;" style="rounded=0;whiteSpace=wrap;html=1;" vertex="1" parent="fhOW-cIPzGvx0NEOiK8O-1">
          <mxGeometry x="10" y="50" width="120" height="40" as="geometry" />
        </mxCell>
        <mxCell id="fhOW-cIPzGvx0NEOiK8O-27" value="" style="edgeStyle=orthogonalEdgeStyle;rounded=0;orthogonalLoop=1;jettySize=auto;html=1;entryX=1;entryY=0.5;entryDx=0;entryDy=0;curved=1;" edge="1" parent="fhOW-cIPzGvx0NEOiK8O-1" source="fhOW-cIPzGvx0NEOiK8O-13" target="fhOW-cIPzGvx0NEOiK8O-5">
          <mxGeometry relative="1" as="geometry" />
        </mxCell>
        <mxCell id="fhOW-cIPzGvx0NEOiK8O-13" value="" style="shape=image;verticalLabelPosition=bottom;labelBackgroundColor=default;verticalAlign=top;aspect=fixed;imageAspect=0;image=data:image/svg+xml,PHN2ZyB4bWxuczp4bGluaz0iaHR0cDovL3d3dy53My5vcmcvMTk5OS94bGluayIgeG1sbnM9Imh0dHA6Ly93d3cudzMub3JnLzIwMDAvc3ZnIiBoZWlnaHQ9IjIwMCIgd2lkdGg9IjIwMCIgdmVyc2lvbj0iMS4xIiB2aWV3Qm94PSIwIDAgMTAyNCAxMDI0IiBjbGFzcz0iaWNvbiI+PHBhdGggZD0iTTc2OCA4OTZIMjU2Yy03Mi41MzMzMzMgMC0xMjgtNTUuNDY2NjY3LTEyOC0xMjhWMjU2YzAtNzIuNTMzMzMzIDU1LjQ2NjY2Ny0xMjggMTI4LTEyOGg1MTJjNzIuNTMzMzMzIDAgMTI4IDU1LjQ2NjY2NyAxMjggMTI4djUxMmMwIDcyLjUzMzMzMy01NS40NjY2NjcgMTI4LTEyOCAxMjh6TTI1NiAyMTMuMzMzMzMzYy0yNS42IDAtNDIuNjY2NjY3IDE3LjA2NjY2Ny00Mi42NjY2NjcgNDIuNjY2NjY3djUxMmMwIDI1LjYgMTcuMDY2NjY3IDQyLjY2NjY2NyA0Mi42NjY2NjcgNDIuNjY2NjY3aDUxMmMyNS42IDAgNDIuNjY2NjY3LTE3LjA2NjY2NyA0Mi42NjY2NjctNDIuNjY2NjY3VjI1NmMwLTI1LjYtMTcuMDY2NjY3LTQyLjY2NjY2Ny00Mi42NjY2NjctNDIuNjY2NjY3SDI1NnoiLz48cGF0aCBkPSJNNjQwIDY4Mi42NjY2NjdIMzg0Yy0yNS42IDAtNDIuNjY2NjY3LTE3LjA2NjY2Ny00Mi42NjY2NjctNDIuNjY2NjY3VjM4NGMwLTI1LjYgMTcuMDY2NjY3LTQyLjY2NjY2NyA0Mi42NjY2NjctNDIuNjY2NjY3aDI1NmMyNS42IDAgNDIuNjY2NjY3IDE3LjA2NjY2NyA0Mi42NjY2NjcgNDIuNjY2NjY3djI1NmMwIDI1LjYtMTcuMDY2NjY3IDQyLjY2NjY2Ny00Mi42NjY2NjcgNDIuNjY2NjY3eiBtLTIxMy4zMzMzMzMtODUuMzMzMzM0aDE3MC42NjY2NjZ2LTE3MC42NjY2NjZoLTE3MC42NjY2NjZ2MTcwLjY2NjY2NnpNMzg0IDIxMy4zMzMzMzNjLTI1LjYgMC00Mi42NjY2NjctMTcuMDY2NjY3LTQyLjY2NjY2Ny00Mi42NjY2NjZWNDIuNjY2NjY3YzAtMjUuNiAxNy4wNjY2NjctNDIuNjY2NjY3IDQyLjY2NjY2Ny00Mi42NjY2NjdzNDIuNjY2NjY3IDE3LjA2NjY2NyA0Mi42NjY2NjcgNDIuNjY2NjY3djEyOGMwIDI1LjYtMTcuMDY2NjY3IDQyLjY2NjY2Ny00Mi42NjY2NjcgNDIuNjY2NjY2ek02NDAgMjEzLjMzMzMzM2MtMjUuNiAwLTQyLjY2NjY2Ny0xNy4wNjY2NjctNDIuNjY2NjY3LTQyLjY2NjY2NlY0Mi42NjY2NjdjMC0yNS42IDE3LjA2NjY2Ny00Mi42NjY2NjcgNDIuNjY2NjY3LTQyLjY2NjY2N3M0Mi42NjY2NjcgMTcuMDY2NjY3IDQyLjY2NjY2NyA0Mi42NjY2Njd2MTI4YzAgMjUuNi0xNy4wNjY2NjcgNDIuNjY2NjY3LTQyLjY2NjY2NyA0Mi42NjY2NjZ6TTM4NCAxMDI0Yy0yNS42IDAtNDIuNjY2NjY3LTE3LjA2NjY2Ny00Mi42NjY2NjctNDIuNjY2NjY3di0xMjhjMC0yNS42IDE3LjA2NjY2Ny00Mi42NjY2NjcgNDIuNjY2NjY3LTQyLjY2NjY2NnM0Mi42NjY2NjcgMTcuMDY2NjY3IDQyLjY2NjY2NyA0Mi42NjY2NjZ2MTI4YzAgMjUuNi0xNy4wNjY2NjcgNDIuNjY2NjY3LTQyLjY2NjY2NyA0Mi42NjY2Njd6TTY0MCAxMDI0Yy0yNS42IDAtNDIuNjY2NjY3LTE3LjA2NjY2Ny00Mi42NjY2NjctNDIuNjY2NjY3di0xMjhjMC0yNS42IDE3LjA2NjY2Ny00Mi42NjY2NjcgNDIuNjY2NjY3LTQyLjY2NjY2NnM0Mi42NjY2NjcgMTcuMDY2NjY3IDQyLjY2NjY2NyA0Mi42NjY2NjZ2MTI4YzAgMjUuNi0xNy4wNjY2NjcgNDIuNjY2NjY3LTQyLjY2NjY2NyA0Mi42NjY2Njd6TTk4MS4zMzMzMzMgNDI2LjY2NjY2N2gtMTI4Yy0yNS42IDAtNDIuNjY2NjY3LTE3LjA2NjY2Ny00Mi42NjY2NjYtNDIuNjY2NjY3czE3LjA2NjY2Ny00Mi42NjY2NjcgNDIuNjY2NjY2LTQyLjY2NjY2N2gxMjhjMjUuNiAwIDQyLjY2NjY2NyAxNy4wNjY2NjcgNDIuNjY2NjY3IDQyLjY2NjY2N3MtMTcuMDY2NjY3IDQyLjY2NjY2Ny00Mi42NjY2NjcgNDIuNjY2NjY3ek05ODEuMzMzMzMzIDY0MGgtMTI4Yy0yNS42IDAtNDIuNjY2NjY3LTE3LjA2NjY2Ny00Mi42NjY2NjYtNDIuNjY2NjY3czE3LjA2NjY2Ny00Mi42NjY2NjcgNDIuNjY2NjY2LTQyLjY2NjY2NmgxMjhjMjUuNiAwIDQyLjY2NjY2NyAxNy4wNjY2NjcgNDIuNjY2NjY3IDQyLjY2NjY2NnMtMTcuMDY2NjY3IDQyLjY2NjY2Ny00Mi42NjY2NjcgNDIuNjY2NjY3ek0xNzAuNjY2NjY3IDQyNi42NjY2NjdINDIuNjY2NjY3Yy0yNS42IDAtNDIuNjY2NjY3LTE3LjA2NjY2Ny00Mi42NjY2NjctNDIuNjY2NjY3czE3LjA2NjY2Ny00Mi42NjY2NjcgNDIuNjY2NjY3LTQyLjY2NjY2N2gxMjhjMjUuNiAwIDQyLjY2NjY2NyAxNy4wNjY2NjcgNDIuNjY2NjY2IDQyLjY2NjY2N3MtMTcuMDY2NjY3IDQyLjY2NjY2Ny00Mi42NjY2NjYgNDIuNjY2NjY3ek0xNzAuNjY2NjY3IDY0MEg0Mi42NjY2NjdjLTI1LjYgMC00Mi42NjY2NjctMTcuMDY2NjY3LTQyLjY2NjY2Ny00Mi42NjY2NjdzMTcuMDY2NjY3LTQyLjY2NjY2NyA0Mi42NjY2NjctNDIuNjY2NjY2aDEyOGMyNS42IDAgNDIuNjY2NjY3IDE3LjA2NjY2NyA0Mi42NjY2NjYgNDIuNjY2NjY2cy0xNy4wNjY2NjcgNDIuNjY2NjY3LTQyLjY2NjY2NiA0Mi42NjY2Njd6Ii8+PC9zdmc+;" vertex="1" parent="fhOW-cIPzGvx0NEOiK8O-1">
          <mxGeometry x="166.95" y="110" width="20" height="20" as="geometry" />
        </mxCell>
        <mxCell id="fhOW-cIPzGvx0NEOiK8O-28" value="" style="edgeStyle=orthogonalEdgeStyle;rounded=1;orthogonalLoop=1;jettySize=auto;html=1;curved=0;" edge="1" parent="fhOW-cIPzGvx0NEOiK8O-1" source="fhOW-cIPzGvx0NEOiK8O-14" target="fhOW-cIPzGvx0NEOiK8O-5">
          <mxGeometry relative="1" as="geometry" />
        </mxCell>
        <mxCell id="fhOW-cIPzGvx0NEOiK8O-14" value="" style="shape=image;verticalLabelPosition=bottom;labelBackgroundColor=default;verticalAlign=top;aspect=fixed;imageAspect=0;image=data:image/svg+xml,PHN2ZyB4bWxuczp4bGluaz0iaHR0cDovL3d3dy53My5vcmcvMTk5OS94bGluayIgeG1sbnM9Imh0dHA6Ly93d3cudzMub3JnLzIwMDAvc3ZnIiBoZWlnaHQ9IjIwMCIgd2lkdGg9IjMzOS4wNjI1IiB2ZXJzaW9uPSIxLjEiIHZpZXdCb3g9IjAgMCAxNzM2IDEwMjQiIGNsYXNzPSJpY29uIj48cGF0aCBmaWxsPSIjNDI1NzY2IiBkPSJNMjEwLjQwOTczOSAxMTQuMDY0Njk2VjI4LjMxNTgyNkEyOC4xMzc3MzkgMjguMTM3NzM5IDAgMCAwIDE4Mi4yNzIgMEgyOC4zMTU4MjZhMjguMzE1ODI2IDI4LjMxNTgyNiAwIDAgMCAwIDU2LjYzMTY1MmgxMjUuOTUydjE4OS40NEgyOC4zMTU4MjZ2NDQuMTIxMDQ0aDEyNS45NTJ2NTUuMzg1MDQzSDI4LjMxNTgyNnYzMDcuODY3ODI2aDEyNS45NTJ2NTUuMjA2OTU3SDI4LjMxNTgyNnY0My44MDkzOTFoMTI1Ljk1MnYyMDkuMzQxMjE3YzAgMTUuNjI3MTMgMTIuNDY2MDg3IDI4LjAwNDE3NCAyOC4xMzc3MzkgMjguMDA0MTc0YTI3LjkxNTEzIDI3LjkxNTEzIDAgMCAwIDI4LjE4MjI2MS0yOC4wMDQxNzR2LTc3LjQ2NzgyNmgxMTAuODU5MTMxdjEuNjAyNzgzYzAuMTc4MDg3IDMuNTYxNzM5IDcuNTY4Njk2IDk0LjAyOTkxMyA0NS43MjM4MjYgOTQuMDI5OTEzaDcwOC44MzA2MDhjMzguMTU1MTMgMCA0NS41NDU3MzktOTMuMjczMDQzIDQ1Ljg1NzM5Mi05NC4yMDh2LTEuNTU4MjYxaDQ2Ljc0NzgyNnYxLjU1ODI2MWMwIDAuOTM0OTU3IDguMDEzOTEzIDk0LjIwOCA0Ni4xNjkwNDMgOTQuMjA4aDMyMy4yMjc4MjZjMzguNDY2NzgzIDAgNDUuODEyODctOTMuMjczMDQzIDQ2LjEyNDUyMi05NC4yMDh2LTEuNTU4MjYxaDEzOS4wODU5MTNWMTE0LjA2NDY5NkgyMTAuNDA5NzM5eiBtMTI1LjY0MDM0OCAzMTguNTA4NTIxSDg4MS4wODUyMTdhMzguNzMzOTEzIDM4LjczMzkxMyAwIDAgMSAwIDc3LjQ2NzgyNkgzMzYuMDUwMDg3YTM4LjY0NDg3IDM4LjY0NDg3IDAgMCAxLTM4LjE5OTY1Mi0zOC44MjI5NTZjMC0yMS4yODEzOTEgMTcuMDUxODI2LTM4LjY0NDg3IDM4LjE5OTY1Mi0zOC42NDQ4N20wIDIzMS42OTExMzFhMzguNjQ0ODcgMzguNjQ0ODcgMCAwIDEgMC03Ny4yODk3MzlIODgxLjA4NTIxN2EzOC42NDQ4NyAzOC42NDQ4NyAwIDAgMSAwIDc3LjI4OTczOUgzMzYuMDUwMDg3eiBtNzM2LjY1NjY5NiAyODMuOTE1MTNIMzcwLjI4NzMwNGExMzIuMjI5NTY1IDEzMi4yMjk1NjUgMCAwIDEtMTUuMDAzODI2LTQ3LjY4Mjc4Mmg3MzIuNzgzMzA1Yy0zLjc4NDM0OCAyMC45MjUyMTctMTAuMTk1NDc4IDQxLjQwNTIxNy0xNS4zNiA0Ny42ODI3ODJtNDYyLjMxMzczOSAwaC0zMTcuMjYxOTEzYTE0MS41NzkxMyAxNDEuNTc5MTMgMCAwIDEtMTUuMTgxOTEzLTQ3LjY4Mjc4MmgzNDcuNzU5MzA0YTE0NS45NDIyNjEgMTQ1Ljk0MjI2MSAwIDAgMS0xNS4zMTU0NzggNDcuNjgyNzgybS0yMTYuOTk4OTU3LTEzOS4wODU5MTNBMzA0LjUyODY5NiAzMDQuNTI4Njk2IDAgMSAxIDEzMTcuODQzNDc4IDIwMC4wODA2OTZhMzA0LjUyODY5NiAzMDQuNTI4Njk2IDAgMCAxIDAuMTc4MDg3IDYwOS4wNTczOTEiLz48cGF0aCBmaWxsPSIjNDI1NzY2IiBkPSJNMTQ4MC4yNTg3ODMgMzI2LjQ3NzkxM2E0NzcuMTM5NDc4IDQ3Ny4xMzk0NzggMCAwIDAtMTE2LjczNiA5MC45MTMzOTEgOTMuMjI4NTIyIDkzLjIyODUyMiAwIDAgMC00Mi4yMDY2MDktMTEuNDQyMDg3YzQuODUyODctNDAuNTE0NzgzIDIwLjQ4LTg3LjcwNzgyNiA1OC4zMjM0NzgtMTQ5LjM3MDQzNGgtMTIzLjU5MjM0OGMtOC41OTI2OTYgNzMuNTA1MzkxLTMuMTE2NTIyIDEyNC4zNDkyMTcgOS41NzIxNzQgMTY0LjQxODc4Mi0xMi43MzMyMTcgOC4wMTM5MTMtMjMuNTA3NDc4IDE4LjgzMjY5Ni0zMS40MzIzNDggMzEuNjEwNDM1YTQ1Ni40ODEzOTEgNDU2LjQ4MTM5MSAwIDAgMS05OS41MDYwODctMTAzLjYwMjA4N2MtMTcuMDUxODI2IDM3Ljg0MzQ3OC0zMy45NzAwODcgNjMuNTMyNTIyLTYyLjI4NTkxMyA4NS4yNTkxMyA1OC4zMjM0NzggNDQuMTIxMDQzIDEwNS45NjE3MzkgNjUuMDkwNzgzIDE0Ni42MTAwODcgNzQuMzUxMzA1IDAuODkwNDM1IDE1Ljc2MDY5NiA0Ljk4NjQzNSAyOS42OTYgMTEuODg3MzA1IDQyLjY5NjM0OC0zNy41NzYzNDggMTYuMjUwNDM1LTg2LjgxNzM5MSAyNS42NDQ1MjItMTU4LjYzMDk1NyAyMy45MDgxNzQgMzQuMjgxNzM5IDQzLjgwOTM5MSA2NS4wNDYyNjEgNzUuNTk3OTEzIDgzLjM4OTIxOCAxMDcuNjUzNTY1IDUxLjI4OTA0My0yOS4yNTA3ODMgODguNTA5MjE3LTU5LjkyNjI2MSAxMTYuMzc5ODI2LTkwLjQyMzY1MiAxMy4wODkzOTEgNi44NTYzNDggMjcuNjAzNDc4IDEwLjY4NTIxNyA0Mi4zODQ2OTUgMTEuMTMwNDM0LTQuNjc0NzgzIDQwLjMzNjY5Ni0yMC4xNjgzNDggODcuODg1OTEzLTU4LjMyMzQ3OCAxNDkuMzcwNDM1aDEyMy43MjU5MTNjOC45MDQzNDgtNzMuNjgzNDc4IDMuMTE2NTIyLTEyNC41MjczMDQtOC45MDQzNDgtMTY0LjQxODc4MmExMDYuODUyMTc0IDEwNi44NTIxNzQgMCAwIDAgMzEuNDMyMzQ4LTMxLjc0NGMzMi4zNjczMDQgMjMuNTk2NTIyIDY1LjA5MDc4MyA1Ni45NDMzMDQgOTkuMDE2MzQ4IDEwMy43MzU2NTIgMTcuMDUxODI2LTM3Ljg4OCAzMy45NzAwODctNjMuNjY2MDg3IDYyLjI4NTkxMy04NS43NDg4Ny01OC45OTEzMDQtNDMuODA5MzkxLTEwNi4wOTUzMDQtNjQuNzc5MTMtMTQ2LjkyMTczOS03NC40ODQ4NjlhOTcuNjM2MTc0IDk3LjYzNjE3NCAwIDAgMC0xMS41NzU2NTItNDIuMDczMDQ0YzM3LjUzMTgyNi0xNi4yNTA0MzUgODYuNTA1NzM5LTI1LjgyMjYwOSAxNTguNjMwOTU2LTIzLjk1MjY5Ni0zNC41NDg4Ny00My43NjQ4Ny02NS4yMjQzNDgtNzUuODY1MDQzLTgzLjUyMjc4Mi0xMDcuNzQyNjA4bS0xNjIuMjM3MjE4IDIwOS4yNTIxNzRhMzAuODA5MDQzIDMwLjgwOTA0MyAwIDEgMSAzMC44MDkwNDQtMzAuNzY0NTIyIDMxLjI5ODc4MyAzMS4yOTg3ODMgMCAwIDEtMzAuODA5MDQ0IDMwLjgwOTA0MyIvPjwvc3ZnPg==;" vertex="1" parent="fhOW-cIPzGvx0NEOiK8O-1">
          <mxGeometry x="160" y="150" width="33.9" height="20" as="geometry" />
        </mxCell>
        <mxCell id="fhOW-cIPzGvx0NEOiK8O-24" value="" style="edgeStyle=orthogonalEdgeStyle;rounded=0;orthogonalLoop=1;jettySize=auto;html=1;curved=1;" edge="1" parent="fhOW-cIPzGvx0NEOiK8O-1" source="fhOW-cIPzGvx0NEOiK8O-16" target="fhOW-cIPzGvx0NEOiK8O-6">
          <mxGeometry relative="1" as="geometry" />
        </mxCell>
        <mxCell id="fhOW-cIPzGvx0NEOiK8O-16" value="" style="shape=image;verticalLabelPosition=bottom;labelBackgroundColor=default;verticalAlign=top;aspect=fixed;imageAspect=0;image=data:image/svg+xml,PHN2ZyB4bWxuczp4bGluaz0iaHR0cDovL3d3dy53My5vcmcvMTk5OS94bGluayIgeG1sbnM9Imh0dHA6Ly93d3cudzMub3JnLzIwMDAvc3ZnIiBoZWlnaHQ9IjIwMCIgd2lkdGg9IjIwMCIgdmVyc2lvbj0iMS4xIiB2aWV3Qm94PSIwIDAgMTAyNCAxMDI0IiBjbGFzcz0iaWNvbiI+PHBhdGggZD0iTTc2OCA4OTZIMjU2Yy03Mi41MzMzMzMgMC0xMjgtNTUuNDY2NjY3LTEyOC0xMjhWMjU2YzAtNzIuNTMzMzMzIDU1LjQ2NjY2Ny0xMjggMTI4LTEyOGg1MTJjNzIuNTMzMzMzIDAgMTI4IDU1LjQ2NjY2NyAxMjggMTI4djUxMmMwIDcyLjUzMzMzMy01NS40NjY2NjcgMTI4LTEyOCAxMjh6TTI1NiAyMTMuMzMzMzMzYy0yNS42IDAtNDIuNjY2NjY3IDE3LjA2NjY2Ny00Mi42NjY2NjcgNDIuNjY2NjY3djUxMmMwIDI1LjYgMTcuMDY2NjY3IDQyLjY2NjY2NyA0Mi42NjY2NjcgNDIuNjY2NjY3aDUxMmMyNS42IDAgNDIuNjY2NjY3LTE3LjA2NjY2NyA0Mi42NjY2NjctNDIuNjY2NjY3VjI1NmMwLTI1LjYtMTcuMDY2NjY3LTQyLjY2NjY2Ny00Mi42NjY2NjctNDIuNjY2NjY3SDI1NnoiLz48cGF0aCBkPSJNNjQwIDY4Mi42NjY2NjdIMzg0Yy0yNS42IDAtNDIuNjY2NjY3LTE3LjA2NjY2Ny00Mi42NjY2NjctNDIuNjY2NjY3VjM4NGMwLTI1LjYgMTcuMDY2NjY3LTQyLjY2NjY2NyA0Mi42NjY2NjctNDIuNjY2NjY3aDI1NmMyNS42IDAgNDIuNjY2NjY3IDE3LjA2NjY2NyA0Mi42NjY2NjcgNDIuNjY2NjY3djI1NmMwIDI1LjYtMTcuMDY2NjY3IDQyLjY2NjY2Ny00Mi42NjY2NjcgNDIuNjY2NjY3eiBtLTIxMy4zMzMzMzMtODUuMzMzMzM0aDE3MC42NjY2NjZ2LTE3MC42NjY2NjZoLTE3MC42NjY2NjZ2MTcwLjY2NjY2NnpNMzg0IDIxMy4zMzMzMzNjLTI1LjYgMC00Mi42NjY2NjctMTcuMDY2NjY3LTQyLjY2NjY2Ny00Mi42NjY2NjZWNDIuNjY2NjY3YzAtMjUuNiAxNy4wNjY2NjctNDIuNjY2NjY3IDQyLjY2NjY2Ny00Mi42NjY2NjdzNDIuNjY2NjY3IDE3LjA2NjY2NyA0Mi42NjY2NjcgNDIuNjY2NjY3djEyOGMwIDI1LjYtMTcuMDY2NjY3IDQyLjY2NjY2Ny00Mi42NjY2NjcgNDIuNjY2NjY2ek02NDAgMjEzLjMzMzMzM2MtMjUuNiAwLTQyLjY2NjY2Ny0xNy4wNjY2NjctNDIuNjY2NjY3LTQyLjY2NjY2NlY0Mi42NjY2NjdjMC0yNS42IDE3LjA2NjY2Ny00Mi42NjY2NjcgNDIuNjY2NjY3LTQyLjY2NjY2N3M0Mi42NjY2NjcgMTcuMDY2NjY3IDQyLjY2NjY2NyA0Mi42NjY2Njd2MTI4YzAgMjUuNi0xNy4wNjY2NjcgNDIuNjY2NjY3LTQyLjY2NjY2NyA0Mi42NjY2NjZ6TTM4NCAxMDI0Yy0yNS42IDAtNDIuNjY2NjY3LTE3LjA2NjY2Ny00Mi42NjY2NjctNDIuNjY2NjY3di0xMjhjMC0yNS42IDE3LjA2NjY2Ny00Mi42NjY2NjcgNDIuNjY2NjY3LTQyLjY2NjY2NnM0Mi42NjY2NjcgMTcuMDY2NjY3IDQyLjY2NjY2NyA0Mi42NjY2NjZ2MTI4YzAgMjUuNi0xNy4wNjY2NjcgNDIuNjY2NjY3LTQyLjY2NjY2NyA0Mi42NjY2Njd6TTY0MCAxMDI0Yy0yNS42IDAtNDIuNjY2NjY3LTE3LjA2NjY2Ny00Mi42NjY2NjctNDIuNjY2NjY3di0xMjhjMC0yNS42IDE3LjA2NjY2Ny00Mi42NjY2NjcgNDIuNjY2NjY3LTQyLjY2NjY2NnM0Mi42NjY2NjcgMTcuMDY2NjY3IDQyLjY2NjY2NyA0Mi42NjY2NjZ2MTI4YzAgMjUuNi0xNy4wNjY2NjcgNDIuNjY2NjY3LTQyLjY2NjY2NyA0Mi42NjY2Njd6TTk4MS4zMzMzMzMgNDI2LjY2NjY2N2gtMTI4Yy0yNS42IDAtNDIuNjY2NjY3LTE3LjA2NjY2Ny00Mi42NjY2NjYtNDIuNjY2NjY3czE3LjA2NjY2Ny00Mi42NjY2NjcgNDIuNjY2NjY2LTQyLjY2NjY2N2gxMjhjMjUuNiAwIDQyLjY2NjY2NyAxNy4wNjY2NjcgNDIuNjY2NjY3IDQyLjY2NjY2N3MtMTcuMDY2NjY3IDQyLjY2NjY2Ny00Mi42NjY2NjcgNDIuNjY2NjY3ek05ODEuMzMzMzMzIDY0MGgtMTI4Yy0yNS42IDAtNDIuNjY2NjY3LTE3LjA2NjY2Ny00Mi42NjY2NjYtNDIuNjY2NjY3czE3LjA2NjY2Ny00Mi42NjY2NjcgNDIuNjY2NjY2LTQyLjY2NjY2NmgxMjhjMjUuNiAwIDQyLjY2NjY2NyAxNy4wNjY2NjcgNDIuNjY2NjY3IDQyLjY2NjY2NnMtMTcuMDY2NjY3IDQyLjY2NjY2Ny00Mi42NjY2NjcgNDIuNjY2NjY3ek0xNzAuNjY2NjY3IDQyNi42NjY2NjdINDIuNjY2NjY3Yy0yNS42IDAtNDIuNjY2NjY3LTE3LjA2NjY2Ny00Mi42NjY2NjctNDIuNjY2NjY3czE3LjA2NjY2Ny00Mi42NjY2NjcgNDIuNjY2NjY3LTQyLjY2NjY2N2gxMjhjMjUuNiAwIDQyLjY2NjY2NyAxNy4wNjY2NjcgNDIuNjY2NjY2IDQyLjY2NjY2N3MtMTcuMDY2NjY3IDQyLjY2NjY2Ny00Mi42NjY2NjYgNDIuNjY2NjY3ek0xNzAuNjY2NjY3IDY0MEg0Mi42NjY2NjdjLTI1LjYgMC00Mi42NjY2NjctMTcuMDY2NjY3LTQyLjY2NjY2Ny00Mi42NjY2NjdzMTcuMDY2NjY3LTQyLjY2NjY2NyA0Mi42NjY2NjctNDIuNjY2NjY2aDEyOGMyNS42IDAgNDIuNjY2NjY3IDE3LjA2NjY2NyA0Mi42NjY2NjYgNDIuNjY2NjY2cy0xNy4wNjY2NjcgNDIuNjY2NjY3LTQyLjY2NjY2NiA0Mi42NjY2Njd6Ii8+PC9zdmc+;" vertex="1" parent="fhOW-cIPzGvx0NEOiK8O-1">
          <mxGeometry x="166.95" y="80" width="20" height="20" as="geometry" />
        </mxCell>
        <mxCell id="fhOW-cIPzGvx0NEOiK8O-23" value="" style="edgeStyle=orthogonalEdgeStyle;rounded=1;orthogonalLoop=1;jettySize=auto;html=1;curved=0;" edge="1" parent="fhOW-cIPzGvx0NEOiK8O-1" source="fhOW-cIPzGvx0NEOiK8O-17" target="fhOW-cIPzGvx0NEOiK8O-6">
          <mxGeometry relative="1" as="geometry" />
        </mxCell>
        <mxCell id="fhOW-cIPzGvx0NEOiK8O-17" value="" style="shape=image;verticalLabelPosition=bottom;labelBackgroundColor=default;verticalAlign=top;aspect=fixed;imageAspect=0;image=data:image/svg+xml,PHN2ZyB4bWxuczp4bGluaz0iaHR0cDovL3d3dy53My5vcmcvMTk5OS94bGluayIgeG1sbnM9Imh0dHA6Ly93d3cudzMub3JnLzIwMDAvc3ZnIiBoZWlnaHQ9IjIwMCIgd2lkdGg9IjMzOS4wNjI1IiB2ZXJzaW9uPSIxLjEiIHZpZXdCb3g9IjAgMCAxNzM2IDEwMjQiIGNsYXNzPSJpY29uIj48cGF0aCBmaWxsPSIjNDI1NzY2IiBkPSJNMjEwLjQwOTczOSAxMTQuMDY0Njk2VjI4LjMxNTgyNkEyOC4xMzc3MzkgMjguMTM3NzM5IDAgMCAwIDE4Mi4yNzIgMEgyOC4zMTU4MjZhMjguMzE1ODI2IDI4LjMxNTgyNiAwIDAgMCAwIDU2LjYzMTY1MmgxMjUuOTUydjE4OS40NEgyOC4zMTU4MjZ2NDQuMTIxMDQ0aDEyNS45NTJ2NTUuMzg1MDQzSDI4LjMxNTgyNnYzMDcuODY3ODI2aDEyNS45NTJ2NTUuMjA2OTU3SDI4LjMxNTgyNnY0My44MDkzOTFoMTI1Ljk1MnYyMDkuMzQxMjE3YzAgMTUuNjI3MTMgMTIuNDY2MDg3IDI4LjAwNDE3NCAyOC4xMzc3MzkgMjguMDA0MTc0YTI3LjkxNTEzIDI3LjkxNTEzIDAgMCAwIDI4LjE4MjI2MS0yOC4wMDQxNzR2LTc3LjQ2NzgyNmgxMTAuODU5MTMxdjEuNjAyNzgzYzAuMTc4MDg3IDMuNTYxNzM5IDcuNTY4Njk2IDk0LjAyOTkxMyA0NS43MjM4MjYgOTQuMDI5OTEzaDcwOC44MzA2MDhjMzguMTU1MTMgMCA0NS41NDU3MzktOTMuMjczMDQzIDQ1Ljg1NzM5Mi05NC4yMDh2LTEuNTU4MjYxaDQ2Ljc0NzgyNnYxLjU1ODI2MWMwIDAuOTM0OTU3IDguMDEzOTEzIDk0LjIwOCA0Ni4xNjkwNDMgOTQuMjA4aDMyMy4yMjc4MjZjMzguNDY2NzgzIDAgNDUuODEyODctOTMuMjczMDQzIDQ2LjEyNDUyMi05NC4yMDh2LTEuNTU4MjYxaDEzOS4wODU5MTNWMTE0LjA2NDY5NkgyMTAuNDA5NzM5eiBtMTI1LjY0MDM0OCAzMTguNTA4NTIxSDg4MS4wODUyMTdhMzguNzMzOTEzIDM4LjczMzkxMyAwIDAgMSAwIDc3LjQ2NzgyNkgzMzYuMDUwMDg3YTM4LjY0NDg3IDM4LjY0NDg3IDAgMCAxLTM4LjE5OTY1Mi0zOC44MjI5NTZjMC0yMS4yODEzOTEgMTcuMDUxODI2LTM4LjY0NDg3IDM4LjE5OTY1Mi0zOC42NDQ4N20wIDIzMS42OTExMzFhMzguNjQ0ODcgMzguNjQ0ODcgMCAwIDEgMC03Ny4yODk3MzlIODgxLjA4NTIxN2EzOC42NDQ4NyAzOC42NDQ4NyAwIDAgMSAwIDc3LjI4OTczOUgzMzYuMDUwMDg3eiBtNzM2LjY1NjY5NiAyODMuOTE1MTNIMzcwLjI4NzMwNGExMzIuMjI5NTY1IDEzMi4yMjk1NjUgMCAwIDEtMTUuMDAzODI2LTQ3LjY4Mjc4Mmg3MzIuNzgzMzA1Yy0zLjc4NDM0OCAyMC45MjUyMTctMTAuMTk1NDc4IDQxLjQwNTIxNy0xNS4zNiA0Ny42ODI3ODJtNDYyLjMxMzczOSAwaC0zMTcuMjYxOTEzYTE0MS41NzkxMyAxNDEuNTc5MTMgMCAwIDEtMTUuMTgxOTEzLTQ3LjY4Mjc4MmgzNDcuNzU5MzA0YTE0NS45NDIyNjEgMTQ1Ljk0MjI2MSAwIDAgMS0xNS4zMTU0NzggNDcuNjgyNzgybS0yMTYuOTk4OTU3LTEzOS4wODU5MTNBMzA0LjUyODY5NiAzMDQuNTI4Njk2IDAgMSAxIDEzMTcuODQzNDc4IDIwMC4wODA2OTZhMzA0LjUyODY5NiAzMDQuNTI4Njk2IDAgMCAxIDAuMTc4MDg3IDYwOS4wNTczOTEiLz48cGF0aCBmaWxsPSIjNDI1NzY2IiBkPSJNMTQ4MC4yNTg3ODMgMzI2LjQ3NzkxM2E0NzcuMTM5NDc4IDQ3Ny4xMzk0NzggMCAwIDAtMTE2LjczNiA5MC45MTMzOTEgOTMuMjI4NTIyIDkzLjIyODUyMiAwIDAgMC00Mi4yMDY2MDktMTEuNDQyMDg3YzQuODUyODctNDAuNTE0NzgzIDIwLjQ4LTg3LjcwNzgyNiA1OC4zMjM0NzgtMTQ5LjM3MDQzNGgtMTIzLjU5MjM0OGMtOC41OTI2OTYgNzMuNTA1MzkxLTMuMTE2NTIyIDEyNC4zNDkyMTcgOS41NzIxNzQgMTY0LjQxODc4Mi0xMi43MzMyMTcgOC4wMTM5MTMtMjMuNTA3NDc4IDE4LjgzMjY5Ni0zMS40MzIzNDggMzEuNjEwNDM1YTQ1Ni40ODEzOTEgNDU2LjQ4MTM5MSAwIDAgMS05OS41MDYwODctMTAzLjYwMjA4N2MtMTcuMDUxODI2IDM3Ljg0MzQ3OC0zMy45NzAwODcgNjMuNTMyNTIyLTYyLjI4NTkxMyA4NS4yNTkxMyA1OC4zMjM0NzggNDQuMTIxMDQzIDEwNS45NjE3MzkgNjUuMDkwNzgzIDE0Ni42MTAwODcgNzQuMzUxMzA1IDAuODkwNDM1IDE1Ljc2MDY5NiA0Ljk4NjQzNSAyOS42OTYgMTEuODg3MzA1IDQyLjY5NjM0OC0zNy41NzYzNDggMTYuMjUwNDM1LTg2LjgxNzM5MSAyNS42NDQ1MjItMTU4LjYzMDk1NyAyMy45MDgxNzQgMzQuMjgxNzM5IDQzLjgwOTM5MSA2NS4wNDYyNjEgNzUuNTk3OTEzIDgzLjM4OTIxOCAxMDcuNjUzNTY1IDUxLjI4OTA0My0yOS4yNTA3ODMgODguNTA5MjE3LTU5LjkyNjI2MSAxMTYuMzc5ODI2LTkwLjQyMzY1MiAxMy4wODkzOTEgNi44NTYzNDggMjcuNjAzNDc4IDEwLjY4NTIxNyA0Mi4zODQ2OTUgMTEuMTMwNDM0LTQuNjc0NzgzIDQwLjMzNjY5Ni0yMC4xNjgzNDggODcuODg1OTEzLTU4LjMyMzQ3OCAxNDkuMzcwNDM1aDEyMy43MjU5MTNjOC45MDQzNDgtNzMuNjgzNDc4IDMuMTE2NTIyLTEyNC41MjczMDQtOC45MDQzNDgtMTY0LjQxODc4MmExMDYuODUyMTc0IDEwNi44NTIxNzQgMCAwIDAgMzEuNDMyMzQ4LTMxLjc0NGMzMi4zNjczMDQgMjMuNTk2NTIyIDY1LjA5MDc4MyA1Ni45NDMzMDQgOTkuMDE2MzQ4IDEwMy43MzU2NTIgMTcuMDUxODI2LTM3Ljg4OCAzMy45NzAwODctNjMuNjY2MDg3IDYyLjI4NTkxMy04NS43NDg4Ny01OC45OTEzMDQtNDMuODA5MzkxLTEwNi4wOTUzMDQtNjQuNzc5MTMtMTQ2LjkyMTczOS03NC40ODQ4NjlhOTcuNjM2MTc0IDk3LjYzNjE3NCAwIDAgMC0xMS41NzU2NTItNDIuMDczMDQ0YzM3LjUzMTgyNi0xNi4yNTA0MzUgODYuNTA1NzM5LTI1LjgyMjYwOSAxNTguNjMwOTU2LTIzLjk1MjY5Ni0zNC41NDg4Ny00My43NjQ4Ny02NS4yMjQzNDgtNzUuODY1MDQzLTgzLjUyMjc4Mi0xMDcuNzQyNjA4bS0xNjIuMjM3MjE4IDIwOS4yNTIxNzRhMzAuODA5MDQzIDMwLjgwOTA0MyAwIDEgMSAzMC44MDkwNDQtMzAuNzY0NTIyIDMxLjI5ODc4MyAzMS4yOTg3ODMgMCAwIDEtMzAuODA5MDQ0IDMwLjgwOTA0MyIvPjwvc3ZnPg==;" vertex="1" parent="fhOW-cIPzGvx0NEOiK8O-1">
          <mxGeometry x="160" y="40" width="33.9" height="20" as="geometry" />
        </mxCell>
        <mxCell id="fhOW-cIPzGvx0NEOiK8O-71" style="edgeStyle=orthogonalEdgeStyle;rounded=1;orthogonalLoop=1;jettySize=auto;html=1;entryX=0.5;entryY=0;entryDx=0;entryDy=0;curved=0;" edge="1" parent="1" source="fhOW-cIPzGvx0NEOiK8O-4" target="fhOW-cIPzGvx0NEOiK8O-1">
          <mxGeometry relative="1" as="geometry" />
        </mxCell>
        <mxCell id="fhOW-cIPzGvx0NEOiK8O-73" style="edgeStyle=orthogonalEdgeStyle;rounded=1;orthogonalLoop=1;jettySize=auto;html=1;entryX=0.5;entryY=0;entryDx=0;entryDy=0;curved=0;" edge="1" parent="1" source="fhOW-cIPzGvx0NEOiK8O-4" target="fhOW-cIPzGvx0NEOiK8O-29">
          <mxGeometry relative="1" as="geometry" />
        </mxCell>
        <mxCell id="fhOW-cIPzGvx0NEOiK8O-74" style="edgeStyle=orthogonalEdgeStyle;rounded=1;orthogonalLoop=1;jettySize=auto;html=1;entryX=0.5;entryY=0;entryDx=0;entryDy=0;curved=0;" edge="1" parent="1" source="fhOW-cIPzGvx0NEOiK8O-4" target="fhOW-cIPzGvx0NEOiK8O-40">
          <mxGeometry relative="1" as="geometry" />
        </mxCell>
        <mxCell id="fhOW-cIPzGvx0NEOiK8O-75" value="&lt;font face=&quot;Comic Sans MS&quot;&gt;TCP/IP&lt;/font&gt;" style="edgeLabel;html=1;align=center;verticalAlign=middle;resizable=0;points=[];" vertex="1" connectable="0" parent="fhOW-cIPzGvx0NEOiK8O-74">
          <mxGeometry x="-0.8866" relative="1" as="geometry">
            <mxPoint as="offset" />
          </mxGeometry>
        </mxCell>
        <mxCell id="fhOW-cIPzGvx0NEOiK8O-4" value="Master Node" style="swimlane;fontFamily=Comic Sans MS;" vertex="1" parent="1">
          <mxGeometry x="238" y="93" width="370" height="240" as="geometry" />
        </mxCell>
        <mxCell id="fhOW-cIPzGvx0NEOiK8O-51" value="&lt;font face=&quot;Comic Sans MS&quot;&gt;ray actor 0&lt;/font&gt;" style="rounded=0;whiteSpace=wrap;html=1;" vertex="1" parent="fhOW-cIPzGvx0NEOiK8O-4">
          <mxGeometry x="40.5" y="39" width="120" height="40" as="geometry" />
        </mxCell>
        <mxCell id="fhOW-cIPzGvx0NEOiK8O-52" value="&lt;font face=&quot;Comic Sans MS&quot;&gt;ray actor 1&lt;/font&gt;" style="rounded=0;whiteSpace=wrap;html=1;" vertex="1" parent="fhOW-cIPzGvx0NEOiK8O-4">
          <mxGeometry x="212" y="39" width="120" height="40" as="geometry" />
        </mxCell>
        <mxCell id="fhOW-cIPzGvx0NEOiK8O-54" value="&lt;font face=&quot;Comic Sans MS&quot;&gt;ray actor 4&lt;/font&gt;" style="rounded=0;whiteSpace=wrap;html=1;" vertex="1" parent="fhOW-cIPzGvx0NEOiK8O-4">
          <mxGeometry x="40.5" y="179" width="120" height="40" as="geometry" />
        </mxCell>
        <mxCell id="fhOW-cIPzGvx0NEOiK8O-53" value="&lt;font face=&quot;Comic Sans MS&quot;&gt;ray actor 2&lt;/font&gt;" style="rounded=0;whiteSpace=wrap;html=1;" vertex="1" parent="fhOW-cIPzGvx0NEOiK8O-4">
          <mxGeometry x="40.5" y="109" width="120" height="40" as="geometry" />
        </mxCell>
        <mxCell id="fhOW-cIPzGvx0NEOiK8O-56" value="&lt;font face=&quot;Comic Sans MS&quot;&gt;ray actor 3&lt;/font&gt;" style="rounded=0;whiteSpace=wrap;html=1;" vertex="1" parent="fhOW-cIPzGvx0NEOiK8O-4">
          <mxGeometry x="212" y="109" width="120" height="40" as="geometry" />
        </mxCell>
        <mxCell id="fhOW-cIPzGvx0NEOiK8O-55" value="&lt;font face=&quot;Comic Sans MS&quot;&gt;ray actor 5&lt;/font&gt;" style="rounded=0;whiteSpace=wrap;html=1;" vertex="1" parent="fhOW-cIPzGvx0NEOiK8O-4">
          <mxGeometry x="212" y="179" width="118" height="40" as="geometry" />
        </mxCell>
        <mxCell id="fhOW-cIPzGvx0NEOiK8O-29" value="Slave Node 2" style="swimlane;fontFamily=Comic Sans MS;" vertex="1" parent="1">
          <mxGeometry x="322.5" y="400" width="201" height="200" as="geometry" />
        </mxCell>
        <mxCell id="fhOW-cIPzGvx0NEOiK8O-30" value="&lt;font face=&quot;Comic Sans MS&quot;&gt;vllm instance 3&lt;/font&gt;" style="rounded=0;whiteSpace=wrap;html=1;" vertex="1" parent="fhOW-cIPzGvx0NEOiK8O-29">
          <mxGeometry x="10" y="120" width="120" height="40" as="geometry" />
        </mxCell>
        <mxCell id="fhOW-cIPzGvx0NEOiK8O-31" value="&lt;font face=&quot;Comic Sans MS&quot;&gt;vllm instance 2&lt;/font&gt;" style="rounded=0;whiteSpace=wrap;html=1;" vertex="1" parent="fhOW-cIPzGvx0NEOiK8O-29">
          <mxGeometry x="10" y="50" width="120" height="40" as="geometry" />
        </mxCell>
        <mxCell id="fhOW-cIPzGvx0NEOiK8O-32" value="" style="edgeStyle=orthogonalEdgeStyle;rounded=0;orthogonalLoop=1;jettySize=auto;html=1;entryX=1;entryY=0.5;entryDx=0;entryDy=0;curved=1;" edge="1" parent="fhOW-cIPzGvx0NEOiK8O-29" source="fhOW-cIPzGvx0NEOiK8O-33" target="fhOW-cIPzGvx0NEOiK8O-30">
          <mxGeometry relative="1" as="geometry" />
        </mxCell>
        <mxCell id="fhOW-cIPzGvx0NEOiK8O-33" value="" style="shape=image;verticalLabelPosition=bottom;labelBackgroundColor=default;verticalAlign=top;aspect=fixed;imageAspect=0;image=data:image/svg+xml,PHN2ZyB4bWxuczp4bGluaz0iaHR0cDovL3d3dy53My5vcmcvMTk5OS94bGluayIgeG1sbnM9Imh0dHA6Ly93d3cudzMub3JnLzIwMDAvc3ZnIiBoZWlnaHQ9IjIwMCIgd2lkdGg9IjIwMCIgdmVyc2lvbj0iMS4xIiB2aWV3Qm94PSIwIDAgMTAyNCAxMDI0IiBjbGFzcz0iaWNvbiI+PHBhdGggZD0iTTc2OCA4OTZIMjU2Yy03Mi41MzMzMzMgMC0xMjgtNTUuNDY2NjY3LTEyOC0xMjhWMjU2YzAtNzIuNTMzMzMzIDU1LjQ2NjY2Ny0xMjggMTI4LTEyOGg1MTJjNzIuNTMzMzMzIDAgMTI4IDU1LjQ2NjY2NyAxMjggMTI4djUxMmMwIDcyLjUzMzMzMy01NS40NjY2NjcgMTI4LTEyOCAxMjh6TTI1NiAyMTMuMzMzMzMzYy0yNS42IDAtNDIuNjY2NjY3IDE3LjA2NjY2Ny00Mi42NjY2NjcgNDIuNjY2NjY3djUxMmMwIDI1LjYgMTcuMDY2NjY3IDQyLjY2NjY2NyA0Mi42NjY2NjcgNDIuNjY2NjY3aDUxMmMyNS42IDAgNDIuNjY2NjY3LTE3LjA2NjY2NyA0Mi42NjY2NjctNDIuNjY2NjY3VjI1NmMwLTI1LjYtMTcuMDY2NjY3LTQyLjY2NjY2Ny00Mi42NjY2NjctNDIuNjY2NjY3SDI1NnoiLz48cGF0aCBkPSJNNjQwIDY4Mi42NjY2NjdIMzg0Yy0yNS42IDAtNDIuNjY2NjY3LTE3LjA2NjY2Ny00Mi42NjY2NjctNDIuNjY2NjY3VjM4NGMwLTI1LjYgMTcuMDY2NjY3LTQyLjY2NjY2NyA0Mi42NjY2NjctNDIuNjY2NjY3aDI1NmMyNS42IDAgNDIuNjY2NjY3IDE3LjA2NjY2NyA0Mi42NjY2NjcgNDIuNjY2NjY3djI1NmMwIDI1LjYtMTcuMDY2NjY3IDQyLjY2NjY2Ny00Mi42NjY2NjcgNDIuNjY2NjY3eiBtLTIxMy4zMzMzMzMtODUuMzMzMzM0aDE3MC42NjY2NjZ2LTE3MC42NjY2NjZoLTE3MC42NjY2NjZ2MTcwLjY2NjY2NnpNMzg0IDIxMy4zMzMzMzNjLTI1LjYgMC00Mi42NjY2NjctMTcuMDY2NjY3LTQyLjY2NjY2Ny00Mi42NjY2NjZWNDIuNjY2NjY3YzAtMjUuNiAxNy4wNjY2NjctNDIuNjY2NjY3IDQyLjY2NjY2Ny00Mi42NjY2NjdzNDIuNjY2NjY3IDE3LjA2NjY2NyA0Mi42NjY2NjcgNDIuNjY2NjY3djEyOGMwIDI1LjYtMTcuMDY2NjY3IDQyLjY2NjY2Ny00Mi42NjY2NjcgNDIuNjY2NjY2ek02NDAgMjEzLjMzMzMzM2MtMjUuNiAwLTQyLjY2NjY2Ny0xNy4wNjY2NjctNDIuNjY2NjY3LTQyLjY2NjY2NlY0Mi42NjY2NjdjMC0yNS42IDE3LjA2NjY2Ny00Mi42NjY2NjcgNDIuNjY2NjY3LTQyLjY2NjY2N3M0Mi42NjY2NjcgMTcuMDY2NjY3IDQyLjY2NjY2NyA0Mi42NjY2Njd2MTI4YzAgMjUuNi0xNy4wNjY2NjcgNDIuNjY2NjY3LTQyLjY2NjY2NyA0Mi42NjY2NjZ6TTM4NCAxMDI0Yy0yNS42IDAtNDIuNjY2NjY3LTE3LjA2NjY2Ny00Mi42NjY2NjctNDIuNjY2NjY3di0xMjhjMC0yNS42IDE3LjA2NjY2Ny00Mi42NjY2NjcgNDIuNjY2NjY3LTQyLjY2NjY2NnM0Mi42NjY2NjcgMTcuMDY2NjY3IDQyLjY2NjY2NyA0Mi42NjY2NjZ2MTI4YzAgMjUuNi0xNy4wNjY2NjcgNDIuNjY2NjY3LTQyLjY2NjY2NyA0Mi42NjY2Njd6TTY0MCAxMDI0Yy0yNS42IDAtNDIuNjY2NjY3LTE3LjA2NjY2Ny00Mi42NjY2NjctNDIuNjY2NjY3di0xMjhjMC0yNS42IDE3LjA2NjY2Ny00Mi42NjY2NjcgNDIuNjY2NjY3LTQyLjY2NjY2NnM0Mi42NjY2NjcgMTcuMDY2NjY3IDQyLjY2NjY2NyA0Mi42NjY2NjZ2MTI4YzAgMjUuNi0xNy4wNjY2NjcgNDIuNjY2NjY3LTQyLjY2NjY2NyA0Mi42NjY2Njd6TTk4MS4zMzMzMzMgNDI2LjY2NjY2N2gtMTI4Yy0yNS42IDAtNDIuNjY2NjY3LTE3LjA2NjY2Ny00Mi42NjY2NjYtNDIuNjY2NjY3czE3LjA2NjY2Ny00Mi42NjY2NjcgNDIuNjY2NjY2LTQyLjY2NjY2N2gxMjhjMjUuNiAwIDQyLjY2NjY2NyAxNy4wNjY2NjcgNDIuNjY2NjY3IDQyLjY2NjY2N3MtMTcuMDY2NjY3IDQyLjY2NjY2Ny00Mi42NjY2NjcgNDIuNjY2NjY3ek05ODEuMzMzMzMzIDY0MGgtMTI4Yy0yNS42IDAtNDIuNjY2NjY3LTE3LjA2NjY2Ny00Mi42NjY2NjYtNDIuNjY2NjY3czE3LjA2NjY2Ny00Mi42NjY2NjcgNDIuNjY2NjY2LTQyLjY2NjY2NmgxMjhjMjUuNiAwIDQyLjY2NjY2NyAxNy4wNjY2NjcgNDIuNjY2NjY3IDQyLjY2NjY2NnMtMTcuMDY2NjY3IDQyLjY2NjY2Ny00Mi42NjY2NjcgNDIuNjY2NjY3ek0xNzAuNjY2NjY3IDQyNi42NjY2NjdINDIuNjY2NjY3Yy0yNS42IDAtNDIuNjY2NjY3LTE3LjA2NjY2Ny00Mi42NjY2NjctNDIuNjY2NjY3czE3LjA2NjY2Ny00Mi42NjY2NjcgNDIuNjY2NjY3LTQyLjY2NjY2N2gxMjhjMjUuNiAwIDQyLjY2NjY2NyAxNy4wNjY2NjcgNDIuNjY2NjY2IDQyLjY2NjY2N3MtMTcuMDY2NjY3IDQyLjY2NjY2Ny00Mi42NjY2NjYgNDIuNjY2NjY3ek0xNzAuNjY2NjY3IDY0MEg0Mi42NjY2NjdjLTI1LjYgMC00Mi42NjY2NjctMTcuMDY2NjY3LTQyLjY2NjY2Ny00Mi42NjY2NjdzMTcuMDY2NjY3LTQyLjY2NjY2NyA0Mi42NjY2NjctNDIuNjY2NjY2aDEyOGMyNS42IDAgNDIuNjY2NjY3IDE3LjA2NjY2NyA0Mi42NjY2NjYgNDIuNjY2NjY2cy0xNy4wNjY2NjcgNDIuNjY2NjY3LTQyLjY2NjY2NiA0Mi42NjY2Njd6Ii8+PC9zdmc+;" vertex="1" parent="fhOW-cIPzGvx0NEOiK8O-29">
          <mxGeometry x="166.95" y="110" width="20" height="20" as="geometry" />
        </mxCell>
        <mxCell id="fhOW-cIPzGvx0NEOiK8O-34" value="" style="edgeStyle=orthogonalEdgeStyle;rounded=1;orthogonalLoop=1;jettySize=auto;html=1;curved=0;" edge="1" parent="fhOW-cIPzGvx0NEOiK8O-29" source="fhOW-cIPzGvx0NEOiK8O-35" target="fhOW-cIPzGvx0NEOiK8O-30">
          <mxGeometry relative="1" as="geometry" />
        </mxCell>
        <mxCell id="fhOW-cIPzGvx0NEOiK8O-35" value="" style="shape=image;verticalLabelPosition=bottom;labelBackgroundColor=default;verticalAlign=top;aspect=fixed;imageAspect=0;image=data:image/svg+xml,PHN2ZyB4bWxuczp4bGluaz0iaHR0cDovL3d3dy53My5vcmcvMTk5OS94bGluayIgeG1sbnM9Imh0dHA6Ly93d3cudzMub3JnLzIwMDAvc3ZnIiBoZWlnaHQ9IjIwMCIgd2lkdGg9IjMzOS4wNjI1IiB2ZXJzaW9uPSIxLjEiIHZpZXdCb3g9IjAgMCAxNzM2IDEwMjQiIGNsYXNzPSJpY29uIj48cGF0aCBmaWxsPSIjNDI1NzY2IiBkPSJNMjEwLjQwOTczOSAxMTQuMDY0Njk2VjI4LjMxNTgyNkEyOC4xMzc3MzkgMjguMTM3NzM5IDAgMCAwIDE4Mi4yNzIgMEgyOC4zMTU4MjZhMjguMzE1ODI2IDI4LjMxNTgyNiAwIDAgMCAwIDU2LjYzMTY1MmgxMjUuOTUydjE4OS40NEgyOC4zMTU4MjZ2NDQuMTIxMDQ0aDEyNS45NTJ2NTUuMzg1MDQzSDI4LjMxNTgyNnYzMDcuODY3ODI2aDEyNS45NTJ2NTUuMjA2OTU3SDI4LjMxNTgyNnY0My44MDkzOTFoMTI1Ljk1MnYyMDkuMzQxMjE3YzAgMTUuNjI3MTMgMTIuNDY2MDg3IDI4LjAwNDE3NCAyOC4xMzc3MzkgMjguMDA0MTc0YTI3LjkxNTEzIDI3LjkxNTEzIDAgMCAwIDI4LjE4MjI2MS0yOC4wMDQxNzR2LTc3LjQ2NzgyNmgxMTAuODU5MTMxdjEuNjAyNzgzYzAuMTc4MDg3IDMuNTYxNzM5IDcuNTY4Njk2IDk0LjAyOTkxMyA0NS43MjM4MjYgOTQuMDI5OTEzaDcwOC44MzA2MDhjMzguMTU1MTMgMCA0NS41NDU3MzktOTMuMjczMDQzIDQ1Ljg1NzM5Mi05NC4yMDh2LTEuNTU4MjYxaDQ2Ljc0NzgyNnYxLjU1ODI2MWMwIDAuOTM0OTU3IDguMDEzOTEzIDk0LjIwOCA0Ni4xNjkwNDMgOTQuMjA4aDMyMy4yMjc4MjZjMzguNDY2NzgzIDAgNDUuODEyODctOTMuMjczMDQzIDQ2LjEyNDUyMi05NC4yMDh2LTEuNTU4MjYxaDEzOS4wODU5MTNWMTE0LjA2NDY5NkgyMTAuNDA5NzM5eiBtMTI1LjY0MDM0OCAzMTguNTA4NTIxSDg4MS4wODUyMTdhMzguNzMzOTEzIDM4LjczMzkxMyAwIDAgMSAwIDc3LjQ2NzgyNkgzMzYuMDUwMDg3YTM4LjY0NDg3IDM4LjY0NDg3IDAgMCAxLTM4LjE5OTY1Mi0zOC44MjI5NTZjMC0yMS4yODEzOTEgMTcuMDUxODI2LTM4LjY0NDg3IDM4LjE5OTY1Mi0zOC42NDQ4N20wIDIzMS42OTExMzFhMzguNjQ0ODcgMzguNjQ0ODcgMCAwIDEgMC03Ny4yODk3MzlIODgxLjA4NTIxN2EzOC42NDQ4NyAzOC42NDQ4NyAwIDAgMSAwIDc3LjI4OTczOUgzMzYuMDUwMDg3eiBtNzM2LjY1NjY5NiAyODMuOTE1MTNIMzcwLjI4NzMwNGExMzIuMjI5NTY1IDEzMi4yMjk1NjUgMCAwIDEtMTUuMDAzODI2LTQ3LjY4Mjc4Mmg3MzIuNzgzMzA1Yy0zLjc4NDM0OCAyMC45MjUyMTctMTAuMTk1NDc4IDQxLjQwNTIxNy0xNS4zNiA0Ny42ODI3ODJtNDYyLjMxMzczOSAwaC0zMTcuMjYxOTEzYTE0MS41NzkxMyAxNDEuNTc5MTMgMCAwIDEtMTUuMTgxOTEzLTQ3LjY4Mjc4MmgzNDcuNzU5MzA0YTE0NS45NDIyNjEgMTQ1Ljk0MjI2MSAwIDAgMS0xNS4zMTU0NzggNDcuNjgyNzgybS0yMTYuOTk4OTU3LTEzOS4wODU5MTNBMzA0LjUyODY5NiAzMDQuNTI4Njk2IDAgMSAxIDEzMTcuODQzNDc4IDIwMC4wODA2OTZhMzA0LjUyODY5NiAzMDQuNTI4Njk2IDAgMCAxIDAuMTc4MDg3IDYwOS4wNTczOTEiLz48cGF0aCBmaWxsPSIjNDI1NzY2IiBkPSJNMTQ4MC4yNTg3ODMgMzI2LjQ3NzkxM2E0NzcuMTM5NDc4IDQ3Ny4xMzk0NzggMCAwIDAtMTE2LjczNiA5MC45MTMzOTEgOTMuMjI4NTIyIDkzLjIyODUyMiAwIDAgMC00Mi4yMDY2MDktMTEuNDQyMDg3YzQuODUyODctNDAuNTE0NzgzIDIwLjQ4LTg3LjcwNzgyNiA1OC4zMjM0NzgtMTQ5LjM3MDQzNGgtMTIzLjU5MjM0OGMtOC41OTI2OTYgNzMuNTA1MzkxLTMuMTE2NTIyIDEyNC4zNDkyMTcgOS41NzIxNzQgMTY0LjQxODc4Mi0xMi43MzMyMTcgOC4wMTM5MTMtMjMuNTA3NDc4IDE4LjgzMjY5Ni0zMS40MzIzNDggMzEuNjEwNDM1YTQ1Ni40ODEzOTEgNDU2LjQ4MTM5MSAwIDAgMS05OS41MDYwODctMTAzLjYwMjA4N2MtMTcuMDUxODI2IDM3Ljg0MzQ3OC0zMy45NzAwODcgNjMuNTMyNTIyLTYyLjI4NTkxMyA4NS4yNTkxMyA1OC4zMjM0NzggNDQuMTIxMDQzIDEwNS45NjE3MzkgNjUuMDkwNzgzIDE0Ni42MTAwODcgNzQuMzUxMzA1IDAuODkwNDM1IDE1Ljc2MDY5NiA0Ljk4NjQzNSAyOS42OTYgMTEuODg3MzA1IDQyLjY5NjM0OC0zNy41NzYzNDggMTYuMjUwNDM1LTg2LjgxNzM5MSAyNS42NDQ1MjItMTU4LjYzMDk1NyAyMy45MDgxNzQgMzQuMjgxNzM5IDQzLjgwOTM5MSA2NS4wNDYyNjEgNzUuNTk3OTEzIDgzLjM4OTIxOCAxMDcuNjUzNTY1IDUxLjI4OTA0My0yOS4yNTA3ODMgODguNTA5MjE3LTU5LjkyNjI2MSAxMTYuMzc5ODI2LTkwLjQyMzY1MiAxMy4wODkzOTEgNi44NTYzNDggMjcuNjAzNDc4IDEwLjY4NTIxNyA0Mi4zODQ2OTUgMTEuMTMwNDM0LTQuNjc0NzgzIDQwLjMzNjY5Ni0yMC4xNjgzNDggODcuODg1OTEzLTU4LjMyMzQ3OCAxNDkuMzcwNDM1aDEyMy43MjU5MTNjOC45MDQzNDgtNzMuNjgzNDc4IDMuMTE2NTIyLTEyNC41MjczMDQtOC45MDQzNDgtMTY0LjQxODc4MmExMDYuODUyMTc0IDEwNi44NTIxNzQgMCAwIDAgMzEuNDMyMzQ4LTMxLjc0NGMzMi4zNjczMDQgMjMuNTk2NTIyIDY1LjA5MDc4MyA1Ni45NDMzMDQgOTkuMDE2MzQ4IDEwMy43MzU2NTIgMTcuMDUxODI2LTM3Ljg4OCAzMy45NzAwODctNjMuNjY2MDg3IDYyLjI4NTkxMy04NS43NDg4Ny01OC45OTEzMDQtNDMuODA5MzkxLTEwNi4wOTUzMDQtNjQuNzc5MTMtMTQ2LjkyMTczOS03NC40ODQ4NjlhOTcuNjM2MTc0IDk3LjYzNjE3NCAwIDAgMC0xMS41NzU2NTItNDIuMDczMDQ0YzM3LjUzMTgyNi0xNi4yNTA0MzUgODYuNTA1NzM5LTI1LjgyMjYwOSAxNTguNjMwOTU2LTIzLjk1MjY5Ni0zNC41NDg4Ny00My43NjQ4Ny02NS4yMjQzNDgtNzUuODY1MDQzLTgzLjUyMjc4Mi0xMDcuNzQyNjA4bS0xNjIuMjM3MjE4IDIwOS4yNTIxNzRhMzAuODA5MDQzIDMwLjgwOTA0MyAwIDEgMSAzMC44MDkwNDQtMzAuNzY0NTIyIDMxLjI5ODc4MyAzMS4yOTg3ODMgMCAwIDEtMzAuODA5MDQ0IDMwLjgwOTA0MyIvPjwvc3ZnPg==;" vertex="1" parent="fhOW-cIPzGvx0NEOiK8O-29">
          <mxGeometry x="160" y="150" width="33.9" height="20" as="geometry" />
        </mxCell>
        <mxCell id="fhOW-cIPzGvx0NEOiK8O-36" value="" style="edgeStyle=orthogonalEdgeStyle;rounded=0;orthogonalLoop=1;jettySize=auto;html=1;curved=1;" edge="1" parent="fhOW-cIPzGvx0NEOiK8O-29" source="fhOW-cIPzGvx0NEOiK8O-37" target="fhOW-cIPzGvx0NEOiK8O-31">
          <mxGeometry relative="1" as="geometry" />
        </mxCell>
        <mxCell id="fhOW-cIPzGvx0NEOiK8O-37" value="" style="shape=image;verticalLabelPosition=bottom;labelBackgroundColor=default;verticalAlign=top;aspect=fixed;imageAspect=0;image=data:image/svg+xml,PHN2ZyB4bWxuczp4bGluaz0iaHR0cDovL3d3dy53My5vcmcvMTk5OS94bGluayIgeG1sbnM9Imh0dHA6Ly93d3cudzMub3JnLzIwMDAvc3ZnIiBoZWlnaHQ9IjIwMCIgd2lkdGg9IjIwMCIgdmVyc2lvbj0iMS4xIiB2aWV3Qm94PSIwIDAgMTAyNCAxMDI0IiBjbGFzcz0iaWNvbiI+PHBhdGggZD0iTTc2OCA4OTZIMjU2Yy03Mi41MzMzMzMgMC0xMjgtNTUuNDY2NjY3LTEyOC0xMjhWMjU2YzAtNzIuNTMzMzMzIDU1LjQ2NjY2Ny0xMjggMTI4LTEyOGg1MTJjNzIuNTMzMzMzIDAgMTI4IDU1LjQ2NjY2NyAxMjggMTI4djUxMmMwIDcyLjUzMzMzMy01NS40NjY2NjcgMTI4LTEyOCAxMjh6TTI1NiAyMTMuMzMzMzMzYy0yNS42IDAtNDIuNjY2NjY3IDE3LjA2NjY2Ny00Mi42NjY2NjcgNDIuNjY2NjY3djUxMmMwIDI1LjYgMTcuMDY2NjY3IDQyLjY2NjY2NyA0Mi42NjY2NjcgNDIuNjY2NjY3aDUxMmMyNS42IDAgNDIuNjY2NjY3LTE3LjA2NjY2NyA0Mi42NjY2NjctNDIuNjY2NjY3VjI1NmMwLTI1LjYtMTcuMDY2NjY3LTQyLjY2NjY2Ny00Mi42NjY2NjctNDIuNjY2NjY3SDI1NnoiLz48cGF0aCBkPSJNNjQwIDY4Mi42NjY2NjdIMzg0Yy0yNS42IDAtNDIuNjY2NjY3LTE3LjA2NjY2Ny00Mi42NjY2NjctNDIuNjY2NjY3VjM4NGMwLTI1LjYgMTcuMDY2NjY3LTQyLjY2NjY2NyA0Mi42NjY2NjctNDIuNjY2NjY3aDI1NmMyNS42IDAgNDIuNjY2NjY3IDE3LjA2NjY2NyA0Mi42NjY2NjcgNDIuNjY2NjY3djI1NmMwIDI1LjYtMTcuMDY2NjY3IDQyLjY2NjY2Ny00Mi42NjY2NjcgNDIuNjY2NjY3eiBtLTIxMy4zMzMzMzMtODUuMzMzMzM0aDE3MC42NjY2NjZ2LTE3MC42NjY2NjZoLTE3MC42NjY2NjZ2MTcwLjY2NjY2NnpNMzg0IDIxMy4zMzMzMzNjLTI1LjYgMC00Mi42NjY2NjctMTcuMDY2NjY3LTQyLjY2NjY2Ny00Mi42NjY2NjZWNDIuNjY2NjY3YzAtMjUuNiAxNy4wNjY2NjctNDIuNjY2NjY3IDQyLjY2NjY2Ny00Mi42NjY2NjdzNDIuNjY2NjY3IDE3LjA2NjY2NyA0Mi42NjY2NjcgNDIuNjY2NjY3djEyOGMwIDI1LjYtMTcuMDY2NjY3IDQyLjY2NjY2Ny00Mi42NjY2NjcgNDIuNjY2NjY2ek02NDAgMjEzLjMzMzMzM2MtMjUuNiAwLTQyLjY2NjY2Ny0xNy4wNjY2NjctNDIuNjY2NjY3LTQyLjY2NjY2NlY0Mi42NjY2NjdjMC0yNS42IDE3LjA2NjY2Ny00Mi42NjY2NjcgNDIuNjY2NjY3LTQyLjY2NjY2N3M0Mi42NjY2NjcgMTcuMDY2NjY3IDQyLjY2NjY2NyA0Mi42NjY2Njd2MTI4YzAgMjUuNi0xNy4wNjY2NjcgNDIuNjY2NjY3LTQyLjY2NjY2NyA0Mi42NjY2NjZ6TTM4NCAxMDI0Yy0yNS42IDAtNDIuNjY2NjY3LTE3LjA2NjY2Ny00Mi42NjY2NjctNDIuNjY2NjY3di0xMjhjMC0yNS42IDE3LjA2NjY2Ny00Mi42NjY2NjcgNDIuNjY2NjY3LTQyLjY2NjY2NnM0Mi42NjY2NjcgMTcuMDY2NjY3IDQyLjY2NjY2NyA0Mi42NjY2NjZ2MTI4YzAgMjUuNi0xNy4wNjY2NjcgNDIuNjY2NjY3LTQyLjY2NjY2NyA0Mi42NjY2Njd6TTY0MCAxMDI0Yy0yNS42IDAtNDIuNjY2NjY3LTE3LjA2NjY2Ny00Mi42NjY2NjctNDIuNjY2NjY3di0xMjhjMC0yNS42IDE3LjA2NjY2Ny00Mi42NjY2NjcgNDIuNjY2NjY3LTQyLjY2NjY2NnM0Mi42NjY2NjcgMTcuMDY2NjY3IDQyLjY2NjY2NyA0Mi42NjY2NjZ2MTI4YzAgMjUuNi0xNy4wNjY2NjcgNDIuNjY2NjY3LTQyLjY2NjY2NyA0Mi42NjY2Njd6TTk4MS4zMzMzMzMgNDI2LjY2NjY2N2gtMTI4Yy0yNS42IDAtNDIuNjY2NjY3LTE3LjA2NjY2Ny00Mi42NjY2NjYtNDIuNjY2NjY3czE3LjA2NjY2Ny00Mi42NjY2NjcgNDIuNjY2NjY2LTQyLjY2NjY2N2gxMjhjMjUuNiAwIDQyLjY2NjY2NyAxNy4wNjY2NjcgNDIuNjY2NjY3IDQyLjY2NjY2N3MtMTcuMDY2NjY3IDQyLjY2NjY2Ny00Mi42NjY2NjcgNDIuNjY2NjY3ek05ODEuMzMzMzMzIDY0MGgtMTI4Yy0yNS42IDAtNDIuNjY2NjY3LTE3LjA2NjY2Ny00Mi42NjY2NjYtNDIuNjY2NjY3czE3LjA2NjY2Ny00Mi42NjY2NjcgNDIuNjY2NjY2LTQyLjY2NjY2NmgxMjhjMjUuNiAwIDQyLjY2NjY2NyAxNy4wNjY2NjcgNDIuNjY2NjY3IDQyLjY2NjY2NnMtMTcuMDY2NjY3IDQyLjY2NjY2Ny00Mi42NjY2NjcgNDIuNjY2NjY3ek0xNzAuNjY2NjY3IDQyNi42NjY2NjdINDIuNjY2NjY3Yy0yNS42IDAtNDIuNjY2NjY3LTE3LjA2NjY2Ny00Mi42NjY2NjctNDIuNjY2NjY3czE3LjA2NjY2Ny00Mi42NjY2NjcgNDIuNjY2NjY3LTQyLjY2NjY2N2gxMjhjMjUuNiAwIDQyLjY2NjY2NyAxNy4wNjY2NjcgNDIuNjY2NjY2IDQyLjY2NjY2N3MtMTcuMDY2NjY3IDQyLjY2NjY2Ny00Mi42NjY2NjYgNDIuNjY2NjY3ek0xNzAuNjY2NjY3IDY0MEg0Mi42NjY2NjdjLTI1LjYgMC00Mi42NjY2NjctMTcuMDY2NjY3LTQyLjY2NjY2Ny00Mi42NjY2NjdzMTcuMDY2NjY3LTQyLjY2NjY2NyA0Mi42NjY2NjctNDIuNjY2NjY2aDEyOGMyNS42IDAgNDIuNjY2NjY3IDE3LjA2NjY2NyA0Mi42NjY2NjYgNDIuNjY2NjY2cy0xNy4wNjY2NjcgNDIuNjY2NjY3LTQyLjY2NjY2NiA0Mi42NjY2Njd6Ii8+PC9zdmc+;" vertex="1" parent="fhOW-cIPzGvx0NEOiK8O-29">
          <mxGeometry x="166.95" y="80" width="20" height="20" as="geometry" />
        </mxCell>
        <mxCell id="fhOW-cIPzGvx0NEOiK8O-38" value="" style="edgeStyle=orthogonalEdgeStyle;rounded=1;orthogonalLoop=1;jettySize=auto;html=1;curved=0;" edge="1" parent="fhOW-cIPzGvx0NEOiK8O-29" source="fhOW-cIPzGvx0NEOiK8O-39" target="fhOW-cIPzGvx0NEOiK8O-31">
          <mxGeometry relative="1" as="geometry" />
        </mxCell>
        <mxCell id="fhOW-cIPzGvx0NEOiK8O-39" value="" style="shape=image;verticalLabelPosition=bottom;labelBackgroundColor=default;verticalAlign=top;aspect=fixed;imageAspect=0;image=data:image/svg+xml,PHN2ZyB4bWxuczp4bGluaz0iaHR0cDovL3d3dy53My5vcmcvMTk5OS94bGluayIgeG1sbnM9Imh0dHA6Ly93d3cudzMub3JnLzIwMDAvc3ZnIiBoZWlnaHQ9IjIwMCIgd2lkdGg9IjMzOS4wNjI1IiB2ZXJzaW9uPSIxLjEiIHZpZXdCb3g9IjAgMCAxNzM2IDEwMjQiIGNsYXNzPSJpY29uIj48cGF0aCBmaWxsPSIjNDI1NzY2IiBkPSJNMjEwLjQwOTczOSAxMTQuMDY0Njk2VjI4LjMxNTgyNkEyOC4xMzc3MzkgMjguMTM3NzM5IDAgMCAwIDE4Mi4yNzIgMEgyOC4zMTU4MjZhMjguMzE1ODI2IDI4LjMxNTgyNiAwIDAgMCAwIDU2LjYzMTY1MmgxMjUuOTUydjE4OS40NEgyOC4zMTU4MjZ2NDQuMTIxMDQ0aDEyNS45NTJ2NTUuMzg1MDQzSDI4LjMxNTgyNnYzMDcuODY3ODI2aDEyNS45NTJ2NTUuMjA2OTU3SDI4LjMxNTgyNnY0My44MDkzOTFoMTI1Ljk1MnYyMDkuMzQxMjE3YzAgMTUuNjI3MTMgMTIuNDY2MDg3IDI4LjAwNDE3NCAyOC4xMzc3MzkgMjguMDA0MTc0YTI3LjkxNTEzIDI3LjkxNTEzIDAgMCAwIDI4LjE4MjI2MS0yOC4wMDQxNzR2LTc3LjQ2NzgyNmgxMTAuODU5MTMxdjEuNjAyNzgzYzAuMTc4MDg3IDMuNTYxNzM5IDcuNTY4Njk2IDk0LjAyOTkxMyA0NS43MjM4MjYgOTQuMDI5OTEzaDcwOC44MzA2MDhjMzguMTU1MTMgMCA0NS41NDU3MzktOTMuMjczMDQzIDQ1Ljg1NzM5Mi05NC4yMDh2LTEuNTU4MjYxaDQ2Ljc0NzgyNnYxLjU1ODI2MWMwIDAuOTM0OTU3IDguMDEzOTEzIDk0LjIwOCA0Ni4xNjkwNDMgOTQuMjA4aDMyMy4yMjc4MjZjMzguNDY2NzgzIDAgNDUuODEyODctOTMuMjczMDQzIDQ2LjEyNDUyMi05NC4yMDh2LTEuNTU4MjYxaDEzOS4wODU5MTNWMTE0LjA2NDY5NkgyMTAuNDA5NzM5eiBtMTI1LjY0MDM0OCAzMTguNTA4NTIxSDg4MS4wODUyMTdhMzguNzMzOTEzIDM4LjczMzkxMyAwIDAgMSAwIDc3LjQ2NzgyNkgzMzYuMDUwMDg3YTM4LjY0NDg3IDM4LjY0NDg3IDAgMCAxLTM4LjE5OTY1Mi0zOC44MjI5NTZjMC0yMS4yODEzOTEgMTcuMDUxODI2LTM4LjY0NDg3IDM4LjE5OTY1Mi0zOC42NDQ4N20wIDIzMS42OTExMzFhMzguNjQ0ODcgMzguNjQ0ODcgMCAwIDEgMC03Ny4yODk3MzlIODgxLjA4NTIxN2EzOC42NDQ4NyAzOC42NDQ4NyAwIDAgMSAwIDc3LjI4OTczOUgzMzYuMDUwMDg3eiBtNzM2LjY1NjY5NiAyODMuOTE1MTNIMzcwLjI4NzMwNGExMzIuMjI5NTY1IDEzMi4yMjk1NjUgMCAwIDEtMTUuMDAzODI2LTQ3LjY4Mjc4Mmg3MzIuNzgzMzA1Yy0zLjc4NDM0OCAyMC45MjUyMTctMTAuMTk1NDc4IDQxLjQwNTIxNy0xNS4zNiA0Ny42ODI3ODJtNDYyLjMxMzczOSAwaC0zMTcuMjYxOTEzYTE0MS41NzkxMyAxNDEuNTc5MTMgMCAwIDEtMTUuMTgxOTEzLTQ3LjY4Mjc4MmgzNDcuNzU5MzA0YTE0NS45NDIyNjEgMTQ1Ljk0MjI2MSAwIDAgMS0xNS4zMTU0NzggNDcuNjgyNzgybS0yMTYuOTk4OTU3LTEzOS4wODU5MTNBMzA0LjUyODY5NiAzMDQuNTI4Njk2IDAgMSAxIDEzMTcuODQzNDc4IDIwMC4wODA2OTZhMzA0LjUyODY5NiAzMDQuNTI4Njk2IDAgMCAxIDAuMTc4MDg3IDYwOS4wNTczOTEiLz48cGF0aCBmaWxsPSIjNDI1NzY2IiBkPSJNMTQ4MC4yNTg3ODMgMzI2LjQ3NzkxM2E0NzcuMTM5NDc4IDQ3Ny4xMzk0NzggMCAwIDAtMTE2LjczNiA5MC45MTMzOTEgOTMuMjI4NTIyIDkzLjIyODUyMiAwIDAgMC00Mi4yMDY2MDktMTEuNDQyMDg3YzQuODUyODctNDAuNTE0NzgzIDIwLjQ4LTg3LjcwNzgyNiA1OC4zMjM0NzgtMTQ5LjM3MDQzNGgtMTIzLjU5MjM0OGMtOC41OTI2OTYgNzMuNTA1MzkxLTMuMTE2NTIyIDEyNC4zNDkyMTcgOS41NzIxNzQgMTY0LjQxODc4Mi0xMi43MzMyMTcgOC4wMTM5MTMtMjMuNTA3NDc4IDE4LjgzMjY5Ni0zMS40MzIzNDggMzEuNjEwNDM1YTQ1Ni40ODEzOTEgNDU2LjQ4MTM5MSAwIDAgMS05OS41MDYwODctMTAzLjYwMjA4N2MtMTcuMDUxODI2IDM3Ljg0MzQ3OC0zMy45NzAwODcgNjMuNTMyNTIyLTYyLjI4NTkxMyA4NS4yNTkxMyA1OC4zMjM0NzggNDQuMTIxMDQzIDEwNS45NjE3MzkgNjUuMDkwNzgzIDE0Ni42MTAwODcgNzQuMzUxMzA1IDAuODkwNDM1IDE1Ljc2MDY5NiA0Ljk4NjQzNSAyOS42OTYgMTEuODg3MzA1IDQyLjY5NjM0OC0zNy41NzYzNDggMTYuMjUwNDM1LTg2LjgxNzM5MSAyNS42NDQ1MjItMTU4LjYzMDk1NyAyMy45MDgxNzQgMzQuMjgxNzM5IDQzLjgwOTM5MSA2NS4wNDYyNjEgNzUuNTk3OTEzIDgzLjM4OTIxOCAxMDcuNjUzNTY1IDUxLjI4OTA0My0yOS4yNTA3ODMgODguNTA5MjE3LTU5LjkyNjI2MSAxMTYuMzc5ODI2LTkwLjQyMzY1MiAxMy4wODkzOTEgNi44NTYzNDggMjcuNjAzNDc4IDEwLjY4NTIxNyA0Mi4zODQ2OTUgMTEuMTMwNDM0LTQuNjc0NzgzIDQwLjMzNjY5Ni0yMC4xNjgzNDggODcuODg1OTEzLTU4LjMyMzQ3OCAxNDkuMzcwNDM1aDEyMy43MjU5MTNjOC45MDQzNDgtNzMuNjgzNDc4IDMuMTE2NTIyLTEyNC41MjczMDQtOC45MDQzNDgtMTY0LjQxODc4MmExMDYuODUyMTc0IDEwNi44NTIxNzQgMCAwIDAgMzEuNDMyMzQ4LTMxLjc0NGMzMi4zNjczMDQgMjMuNTk2NTIyIDY1LjA5MDc4MyA1Ni45NDMzMDQgOTkuMDE2MzQ4IDEwMy43MzU2NTIgMTcuMDUxODI2LTM3Ljg4OCAzMy45NzAwODctNjMuNjY2MDg3IDYyLjI4NTkxMy04NS43NDg4Ny01OC45OTEzMDQtNDMuODA5MzkxLTEwNi4wOTUzMDQtNjQuNzc5MTMtMTQ2LjkyMTczOS03NC40ODQ4NjlhOTcuNjM2MTc0IDk3LjYzNjE3NCAwIDAgMC0xMS41NzU2NTItNDIuMDczMDQ0YzM3LjUzMTgyNi0xNi4yNTA0MzUgODYuNTA1NzM5LTI1LjgyMjYwOSAxNTguNjMwOTU2LTIzLjk1MjY5Ni0zNC41NDg4Ny00My43NjQ4Ny02NS4yMjQzNDgtNzUuODY1MDQzLTgzLjUyMjc4Mi0xMDcuNzQyNjA4bS0xNjIuMjM3MjE4IDIwOS4yNTIxNzRhMzAuODA5MDQzIDMwLjgwOTA0MyAwIDEgMSAzMC44MDkwNDQtMzAuNzY0NTIyIDMxLjI5ODc4MyAzMS4yOTg3ODMgMCAwIDEtMzAuODA5MDQ0IDMwLjgwOTA0MyIvPjwvc3ZnPg==;" vertex="1" parent="fhOW-cIPzGvx0NEOiK8O-29">
          <mxGeometry x="160" y="40" width="33.9" height="20" as="geometry" />
        </mxCell>
        <mxCell id="fhOW-cIPzGvx0NEOiK8O-40" value="Slave Node 3" style="swimlane;fontFamily=Comic Sans MS;" vertex="1" parent="1">
          <mxGeometry x="560" y="400" width="201" height="200" as="geometry" />
        </mxCell>
        <mxCell id="fhOW-cIPzGvx0NEOiK8O-41" value="&lt;font face=&quot;Comic Sans MS&quot;&gt;vllm instance 5&lt;/font&gt;" style="rounded=0;whiteSpace=wrap;html=1;" vertex="1" parent="fhOW-cIPzGvx0NEOiK8O-40">
          <mxGeometry x="10" y="120" width="120" height="40" as="geometry" />
        </mxCell>
        <mxCell id="fhOW-cIPzGvx0NEOiK8O-42" value="&lt;font face=&quot;Comic Sans MS&quot;&gt;vllm instance 4&lt;/font&gt;" style="rounded=0;whiteSpace=wrap;html=1;" vertex="1" parent="fhOW-cIPzGvx0NEOiK8O-40">
          <mxGeometry x="10" y="50" width="120" height="40" as="geometry" />
        </mxCell>
        <mxCell id="fhOW-cIPzGvx0NEOiK8O-43" value="" style="edgeStyle=orthogonalEdgeStyle;rounded=0;orthogonalLoop=1;jettySize=auto;html=1;entryX=1;entryY=0.5;entryDx=0;entryDy=0;curved=1;" edge="1" parent="fhOW-cIPzGvx0NEOiK8O-40" source="fhOW-cIPzGvx0NEOiK8O-44" target="fhOW-cIPzGvx0NEOiK8O-41">
          <mxGeometry relative="1" as="geometry" />
        </mxCell>
        <mxCell id="fhOW-cIPzGvx0NEOiK8O-44" value="" style="shape=image;verticalLabelPosition=bottom;labelBackgroundColor=default;verticalAlign=top;aspect=fixed;imageAspect=0;image=data:image/svg+xml,PHN2ZyB4bWxuczp4bGluaz0iaHR0cDovL3d3dy53My5vcmcvMTk5OS94bGluayIgeG1sbnM9Imh0dHA6Ly93d3cudzMub3JnLzIwMDAvc3ZnIiBoZWlnaHQ9IjIwMCIgd2lkdGg9IjIwMCIgdmVyc2lvbj0iMS4xIiB2aWV3Qm94PSIwIDAgMTAyNCAxMDI0IiBjbGFzcz0iaWNvbiI+PHBhdGggZD0iTTc2OCA4OTZIMjU2Yy03Mi41MzMzMzMgMC0xMjgtNTUuNDY2NjY3LTEyOC0xMjhWMjU2YzAtNzIuNTMzMzMzIDU1LjQ2NjY2Ny0xMjggMTI4LTEyOGg1MTJjNzIuNTMzMzMzIDAgMTI4IDU1LjQ2NjY2NyAxMjggMTI4djUxMmMwIDcyLjUzMzMzMy01NS40NjY2NjcgMTI4LTEyOCAxMjh6TTI1NiAyMTMuMzMzMzMzYy0yNS42IDAtNDIuNjY2NjY3IDE3LjA2NjY2Ny00Mi42NjY2NjcgNDIuNjY2NjY3djUxMmMwIDI1LjYgMTcuMDY2NjY3IDQyLjY2NjY2NyA0Mi42NjY2NjcgNDIuNjY2NjY3aDUxMmMyNS42IDAgNDIuNjY2NjY3LTE3LjA2NjY2NyA0Mi42NjY2NjctNDIuNjY2NjY3VjI1NmMwLTI1LjYtMTcuMDY2NjY3LTQyLjY2NjY2Ny00Mi42NjY2NjctNDIuNjY2NjY3SDI1NnoiLz48cGF0aCBkPSJNNjQwIDY4Mi42NjY2NjdIMzg0Yy0yNS42IDAtNDIuNjY2NjY3LTE3LjA2NjY2Ny00Mi42NjY2NjctNDIuNjY2NjY3VjM4NGMwLTI1LjYgMTcuMDY2NjY3LTQyLjY2NjY2NyA0Mi42NjY2NjctNDIuNjY2NjY3aDI1NmMyNS42IDAgNDIuNjY2NjY3IDE3LjA2NjY2NyA0Mi42NjY2NjcgNDIuNjY2NjY3djI1NmMwIDI1LjYtMTcuMDY2NjY3IDQyLjY2NjY2Ny00Mi42NjY2NjcgNDIuNjY2NjY3eiBtLTIxMy4zMzMzMzMtODUuMzMzMzM0aDE3MC42NjY2NjZ2LTE3MC42NjY2NjZoLTE3MC42NjY2NjZ2MTcwLjY2NjY2NnpNMzg0IDIxMy4zMzMzMzNjLTI1LjYgMC00Mi42NjY2NjctMTcuMDY2NjY3LTQyLjY2NjY2Ny00Mi42NjY2NjZWNDIuNjY2NjY3YzAtMjUuNiAxNy4wNjY2NjctNDIuNjY2NjY3IDQyLjY2NjY2Ny00Mi42NjY2NjdzNDIuNjY2NjY3IDE3LjA2NjY2NyA0Mi42NjY2NjcgNDIuNjY2NjY3djEyOGMwIDI1LjYtMTcuMDY2NjY3IDQyLjY2NjY2Ny00Mi42NjY2NjcgNDIuNjY2NjY2ek02NDAgMjEzLjMzMzMzM2MtMjUuNiAwLTQyLjY2NjY2Ny0xNy4wNjY2NjctNDIuNjY2NjY3LTQyLjY2NjY2NlY0Mi42NjY2NjdjMC0yNS42IDE3LjA2NjY2Ny00Mi42NjY2NjcgNDIuNjY2NjY3LTQyLjY2NjY2N3M0Mi42NjY2NjcgMTcuMDY2NjY3IDQyLjY2NjY2NyA0Mi42NjY2Njd2MTI4YzAgMjUuNi0xNy4wNjY2NjcgNDIuNjY2NjY3LTQyLjY2NjY2NyA0Mi42NjY2NjZ6TTM4NCAxMDI0Yy0yNS42IDAtNDIuNjY2NjY3LTE3LjA2NjY2Ny00Mi42NjY2NjctNDIuNjY2NjY3di0xMjhjMC0yNS42IDE3LjA2NjY2Ny00Mi42NjY2NjcgNDIuNjY2NjY3LTQyLjY2NjY2NnM0Mi42NjY2NjcgMTcuMDY2NjY3IDQyLjY2NjY2NyA0Mi42NjY2NjZ2MTI4YzAgMjUuNi0xNy4wNjY2NjcgNDIuNjY2NjY3LTQyLjY2NjY2NyA0Mi42NjY2Njd6TTY0MCAxMDI0Yy0yNS42IDAtNDIuNjY2NjY3LTE3LjA2NjY2Ny00Mi42NjY2NjctNDIuNjY2NjY3di0xMjhjMC0yNS42IDE3LjA2NjY2Ny00Mi42NjY2NjcgNDIuNjY2NjY3LTQyLjY2NjY2NnM0Mi42NjY2NjcgMTcuMDY2NjY3IDQyLjY2NjY2NyA0Mi42NjY2NjZ2MTI4YzAgMjUuNi0xNy4wNjY2NjcgNDIuNjY2NjY3LTQyLjY2NjY2NyA0Mi42NjY2Njd6TTk4MS4zMzMzMzMgNDI2LjY2NjY2N2gtMTI4Yy0yNS42IDAtNDIuNjY2NjY3LTE3LjA2NjY2Ny00Mi42NjY2NjYtNDIuNjY2NjY3czE3LjA2NjY2Ny00Mi42NjY2NjcgNDIuNjY2NjY2LTQyLjY2NjY2N2gxMjhjMjUuNiAwIDQyLjY2NjY2NyAxNy4wNjY2NjcgNDIuNjY2NjY3IDQyLjY2NjY2N3MtMTcuMDY2NjY3IDQyLjY2NjY2Ny00Mi42NjY2NjcgNDIuNjY2NjY3ek05ODEuMzMzMzMzIDY0MGgtMTI4Yy0yNS42IDAtNDIuNjY2NjY3LTE3LjA2NjY2Ny00Mi42NjY2NjYtNDIuNjY2NjY3czE3LjA2NjY2Ny00Mi42NjY2NjcgNDIuNjY2NjY2LTQyLjY2NjY2NmgxMjhjMjUuNiAwIDQyLjY2NjY2NyAxNy4wNjY2NjcgNDIuNjY2NjY3IDQyLjY2NjY2NnMtMTcuMDY2NjY3IDQyLjY2NjY2Ny00Mi42NjY2NjcgNDIuNjY2NjY3ek0xNzAuNjY2NjY3IDQyNi42NjY2NjdINDIuNjY2NjY3Yy0yNS42IDAtNDIuNjY2NjY3LTE3LjA2NjY2Ny00Mi42NjY2NjctNDIuNjY2NjY3czE3LjA2NjY2Ny00Mi42NjY2NjcgNDIuNjY2NjY3LTQyLjY2NjY2N2gxMjhjMjUuNiAwIDQyLjY2NjY2NyAxNy4wNjY2NjcgNDIuNjY2NjY2IDQyLjY2NjY2N3MtMTcuMDY2NjY3IDQyLjY2NjY2Ny00Mi42NjY2NjYgNDIuNjY2NjY3ek0xNzAuNjY2NjY3IDY0MEg0Mi42NjY2NjdjLTI1LjYgMC00Mi42NjY2NjctMTcuMDY2NjY3LTQyLjY2NjY2Ny00Mi42NjY2NjdzMTcuMDY2NjY3LTQyLjY2NjY2NyA0Mi42NjY2NjctNDIuNjY2NjY2aDEyOGMyNS42IDAgNDIuNjY2NjY3IDE3LjA2NjY2NyA0Mi42NjY2NjYgNDIuNjY2NjY2cy0xNy4wNjY2NjcgNDIuNjY2NjY3LTQyLjY2NjY2NiA0Mi42NjY2Njd6Ii8+PC9zdmc+;" vertex="1" parent="fhOW-cIPzGvx0NEOiK8O-40">
          <mxGeometry x="166.95" y="110" width="20" height="20" as="geometry" />
        </mxCell>
        <mxCell id="fhOW-cIPzGvx0NEOiK8O-45" value="" style="edgeStyle=orthogonalEdgeStyle;rounded=1;orthogonalLoop=1;jettySize=auto;html=1;curved=0;" edge="1" parent="fhOW-cIPzGvx0NEOiK8O-40" source="fhOW-cIPzGvx0NEOiK8O-46" target="fhOW-cIPzGvx0NEOiK8O-41">
          <mxGeometry relative="1" as="geometry" />
        </mxCell>
        <mxCell id="fhOW-cIPzGvx0NEOiK8O-46" value="" style="shape=image;verticalLabelPosition=bottom;labelBackgroundColor=default;verticalAlign=top;aspect=fixed;imageAspect=0;image=data:image/svg+xml,PHN2ZyB4bWxuczp4bGluaz0iaHR0cDovL3d3dy53My5vcmcvMTk5OS94bGluayIgeG1sbnM9Imh0dHA6Ly93d3cudzMub3JnLzIwMDAvc3ZnIiBoZWlnaHQ9IjIwMCIgd2lkdGg9IjMzOS4wNjI1IiB2ZXJzaW9uPSIxLjEiIHZpZXdCb3g9IjAgMCAxNzM2IDEwMjQiIGNsYXNzPSJpY29uIj48cGF0aCBmaWxsPSIjNDI1NzY2IiBkPSJNMjEwLjQwOTczOSAxMTQuMDY0Njk2VjI4LjMxNTgyNkEyOC4xMzc3MzkgMjguMTM3NzM5IDAgMCAwIDE4Mi4yNzIgMEgyOC4zMTU4MjZhMjguMzE1ODI2IDI4LjMxNTgyNiAwIDAgMCAwIDU2LjYzMTY1MmgxMjUuOTUydjE4OS40NEgyOC4zMTU4MjZ2NDQuMTIxMDQ0aDEyNS45NTJ2NTUuMzg1MDQzSDI4LjMxNTgyNnYzMDcuODY3ODI2aDEyNS45NTJ2NTUuMjA2OTU3SDI4LjMxNTgyNnY0My44MDkzOTFoMTI1Ljk1MnYyMDkuMzQxMjE3YzAgMTUuNjI3MTMgMTIuNDY2MDg3IDI4LjAwNDE3NCAyOC4xMzc3MzkgMjguMDA0MTc0YTI3LjkxNTEzIDI3LjkxNTEzIDAgMCAwIDI4LjE4MjI2MS0yOC4wMDQxNzR2LTc3LjQ2NzgyNmgxMTAuODU5MTMxdjEuNjAyNzgzYzAuMTc4MDg3IDMuNTYxNzM5IDcuNTY4Njk2IDk0LjAyOTkxMyA0NS43MjM4MjYgOTQuMDI5OTEzaDcwOC44MzA2MDhjMzguMTU1MTMgMCA0NS41NDU3MzktOTMuMjczMDQzIDQ1Ljg1NzM5Mi05NC4yMDh2LTEuNTU4MjYxaDQ2Ljc0NzgyNnYxLjU1ODI2MWMwIDAuOTM0OTU3IDguMDEzOTEzIDk0LjIwOCA0Ni4xNjkwNDMgOTQuMjA4aDMyMy4yMjc4MjZjMzguNDY2NzgzIDAgNDUuODEyODctOTMuMjczMDQzIDQ2LjEyNDUyMi05NC4yMDh2LTEuNTU4MjYxaDEzOS4wODU5MTNWMTE0LjA2NDY5NkgyMTAuNDA5NzM5eiBtMTI1LjY0MDM0OCAzMTguNTA4NTIxSDg4MS4wODUyMTdhMzguNzMzOTEzIDM4LjczMzkxMyAwIDAgMSAwIDc3LjQ2NzgyNkgzMzYuMDUwMDg3YTM4LjY0NDg3IDM4LjY0NDg3IDAgMCAxLTM4LjE5OTY1Mi0zOC44MjI5NTZjMC0yMS4yODEzOTEgMTcuMDUxODI2LTM4LjY0NDg3IDM4LjE5OTY1Mi0zOC42NDQ4N20wIDIzMS42OTExMzFhMzguNjQ0ODcgMzguNjQ0ODcgMCAwIDEgMC03Ny4yODk3MzlIODgxLjA4NTIxN2EzOC42NDQ4NyAzOC42NDQ4NyAwIDAgMSAwIDc3LjI4OTczOUgzMzYuMDUwMDg3eiBtNzM2LjY1NjY5NiAyODMuOTE1MTNIMzcwLjI4NzMwNGExMzIuMjI5NTY1IDEzMi4yMjk1NjUgMCAwIDEtMTUuMDAzODI2LTQ3LjY4Mjc4Mmg3MzIuNzgzMzA1Yy0zLjc4NDM0OCAyMC45MjUyMTctMTAuMTk1NDc4IDQxLjQwNTIxNy0xNS4zNiA0Ny42ODI3ODJtNDYyLjMxMzczOSAwaC0zMTcuMjYxOTEzYTE0MS41NzkxMyAxNDEuNTc5MTMgMCAwIDEtMTUuMTgxOTEzLTQ3LjY4Mjc4MmgzNDcuNzU5MzA0YTE0NS45NDIyNjEgMTQ1Ljk0MjI2MSAwIDAgMS0xNS4zMTU0NzggNDcuNjgyNzgybS0yMTYuOTk4OTU3LTEzOS4wODU5MTNBMzA0LjUyODY5NiAzMDQuNTI4Njk2IDAgMSAxIDEzMTcuODQzNDc4IDIwMC4wODA2OTZhMzA0LjUyODY5NiAzMDQuNTI4Njk2IDAgMCAxIDAuMTc4MDg3IDYwOS4wNTczOTEiLz48cGF0aCBmaWxsPSIjNDI1NzY2IiBkPSJNMTQ4MC4yNTg3ODMgMzI2LjQ3NzkxM2E0NzcuMTM5NDc4IDQ3Ny4xMzk0NzggMCAwIDAtMTE2LjczNiA5MC45MTMzOTEgOTMuMjI4NTIyIDkzLjIyODUyMiAwIDAgMC00Mi4yMDY2MDktMTEuNDQyMDg3YzQuODUyODctNDAuNTE0NzgzIDIwLjQ4LTg3LjcwNzgyNiA1OC4zMjM0NzgtMTQ5LjM3MDQzNGgtMTIzLjU5MjM0OGMtOC41OTI2OTYgNzMuNTA1MzkxLTMuMTE2NTIyIDEyNC4zNDkyMTcgOS41NzIxNzQgMTY0LjQxODc4Mi0xMi43MzMyMTcgOC4wMTM5MTMtMjMuNTA3NDc4IDE4LjgzMjY5Ni0zMS40MzIzNDggMzEuNjEwNDM1YTQ1Ni40ODEzOTEgNDU2LjQ4MTM5MSAwIDAgMS05OS41MDYwODctMTAzLjYwMjA4N2MtMTcuMDUxODI2IDM3Ljg0MzQ3OC0zMy45NzAwODcgNjMuNTMyNTIyLTYyLjI4NTkxMyA4NS4yNTkxMyA1OC4zMjM0NzggNDQuMTIxMDQzIDEwNS45NjE3MzkgNjUuMDkwNzgzIDE0Ni42MTAwODcgNzQuMzUxMzA1IDAuODkwNDM1IDE1Ljc2MDY5NiA0Ljk4NjQzNSAyOS42OTYgMTEuODg3MzA1IDQyLjY5NjM0OC0zNy41NzYzNDggMTYuMjUwNDM1LTg2LjgxNzM5MSAyNS42NDQ1MjItMTU4LjYzMDk1NyAyMy45MDgxNzQgMzQuMjgxNzM5IDQzLjgwOTM5MSA2NS4wNDYyNjEgNzUuNTk3OTEzIDgzLjM4OTIxOCAxMDcuNjUzNTY1IDUxLjI4OTA0My0yOS4yNTA3ODMgODguNTA5MjE3LTU5LjkyNjI2MSAxMTYuMzc5ODI2LTkwLjQyMzY1MiAxMy4wODkzOTEgNi44NTYzNDggMjcuNjAzNDc4IDEwLjY4NTIxNyA0Mi4zODQ2OTUgMTEuMTMwNDM0LTQuNjc0NzgzIDQwLjMzNjY5Ni0yMC4xNjgzNDggODcuODg1OTEzLTU4LjMyMzQ3OCAxNDkuMzcwNDM1aDEyMy43MjU5MTNjOC45MDQzNDgtNzMuNjgzNDc4IDMuMTE2NTIyLTEyNC41MjczMDQtOC45MDQzNDgtMTY0LjQxODc4MmExMDYuODUyMTc0IDEwNi44NTIxNzQgMCAwIDAgMzEuNDMyMzQ4LTMxLjc0NGMzMi4zNjczMDQgMjMuNTk2NTIyIDY1LjA5MDc4MyA1Ni45NDMzMDQgOTkuMDE2MzQ4IDEwMy43MzU2NTIgMTcuMDUxODI2LTM3Ljg4OCAzMy45NzAwODctNjMuNjY2MDg3IDYyLjI4NTkxMy04NS43NDg4Ny01OC45OTEzMDQtNDMuODA5MzkxLTEwNi4wOTUzMDQtNjQuNzc5MTMtMTQ2LjkyMTczOS03NC40ODQ4NjlhOTcuNjM2MTc0IDk3LjYzNjE3NCAwIDAgMC0xMS41NzU2NTItNDIuMDczMDQ0YzM3LjUzMTgyNi0xNi4yNTA0MzUgODYuNTA1NzM5LTI1LjgyMjYwOSAxNTguNjMwOTU2LTIzLjk1MjY5Ni0zNC41NDg4Ny00My43NjQ4Ny02NS4yMjQzNDgtNzUuODY1MDQzLTgzLjUyMjc4Mi0xMDcuNzQyNjA4bS0xNjIuMjM3MjE4IDIwOS4yNTIxNzRhMzAuODA5MDQzIDMwLjgwOTA0MyAwIDEgMSAzMC44MDkwNDQtMzAuNzY0NTIyIDMxLjI5ODc4MyAzMS4yOTg3ODMgMCAwIDEtMzAuODA5MDQ0IDMwLjgwOTA0MyIvPjwvc3ZnPg==;" vertex="1" parent="fhOW-cIPzGvx0NEOiK8O-40">
          <mxGeometry x="160" y="150" width="33.9" height="20" as="geometry" />
        </mxCell>
        <mxCell id="fhOW-cIPzGvx0NEOiK8O-47" value="" style="edgeStyle=orthogonalEdgeStyle;rounded=0;orthogonalLoop=1;jettySize=auto;html=1;curved=1;" edge="1" parent="fhOW-cIPzGvx0NEOiK8O-40" source="fhOW-cIPzGvx0NEOiK8O-48" target="fhOW-cIPzGvx0NEOiK8O-42">
          <mxGeometry relative="1" as="geometry" />
        </mxCell>
        <mxCell id="fhOW-cIPzGvx0NEOiK8O-48" value="" style="shape=image;verticalLabelPosition=bottom;labelBackgroundColor=default;verticalAlign=top;aspect=fixed;imageAspect=0;image=data:image/svg+xml,PHN2ZyB4bWxuczp4bGluaz0iaHR0cDovL3d3dy53My5vcmcvMTk5OS94bGluayIgeG1sbnM9Imh0dHA6Ly93d3cudzMub3JnLzIwMDAvc3ZnIiBoZWlnaHQ9IjIwMCIgd2lkdGg9IjIwMCIgdmVyc2lvbj0iMS4xIiB2aWV3Qm94PSIwIDAgMTAyNCAxMDI0IiBjbGFzcz0iaWNvbiI+PHBhdGggZD0iTTc2OCA4OTZIMjU2Yy03Mi41MzMzMzMgMC0xMjgtNTUuNDY2NjY3LTEyOC0xMjhWMjU2YzAtNzIuNTMzMzMzIDU1LjQ2NjY2Ny0xMjggMTI4LTEyOGg1MTJjNzIuNTMzMzMzIDAgMTI4IDU1LjQ2NjY2NyAxMjggMTI4djUxMmMwIDcyLjUzMzMzMy01NS40NjY2NjcgMTI4LTEyOCAxMjh6TTI1NiAyMTMuMzMzMzMzYy0yNS42IDAtNDIuNjY2NjY3IDE3LjA2NjY2Ny00Mi42NjY2NjcgNDIuNjY2NjY3djUxMmMwIDI1LjYgMTcuMDY2NjY3IDQyLjY2NjY2NyA0Mi42NjY2NjcgNDIuNjY2NjY3aDUxMmMyNS42IDAgNDIuNjY2NjY3LTE3LjA2NjY2NyA0Mi42NjY2NjctNDIuNjY2NjY3VjI1NmMwLTI1LjYtMTcuMDY2NjY3LTQyLjY2NjY2Ny00Mi42NjY2NjctNDIuNjY2NjY3SDI1NnoiLz48cGF0aCBkPSJNNjQwIDY4Mi42NjY2NjdIMzg0Yy0yNS42IDAtNDIuNjY2NjY3LTE3LjA2NjY2Ny00Mi42NjY2NjctNDIuNjY2NjY3VjM4NGMwLTI1LjYgMTcuMDY2NjY3LTQyLjY2NjY2NyA0Mi42NjY2NjctNDIuNjY2NjY3aDI1NmMyNS42IDAgNDIuNjY2NjY3IDE3LjA2NjY2NyA0Mi42NjY2NjcgNDIuNjY2NjY3djI1NmMwIDI1LjYtMTcuMDY2NjY3IDQyLjY2NjY2Ny00Mi42NjY2NjcgNDIuNjY2NjY3eiBtLTIxMy4zMzMzMzMtODUuMzMzMzM0aDE3MC42NjY2NjZ2LTE3MC42NjY2NjZoLTE3MC42NjY2NjZ2MTcwLjY2NjY2NnpNMzg0IDIxMy4zMzMzMzNjLTI1LjYgMC00Mi42NjY2NjctMTcuMDY2NjY3LTQyLjY2NjY2Ny00Mi42NjY2NjZWNDIuNjY2NjY3YzAtMjUuNiAxNy4wNjY2NjctNDIuNjY2NjY3IDQyLjY2NjY2Ny00Mi42NjY2NjdzNDIuNjY2NjY3IDE3LjA2NjY2NyA0Mi42NjY2NjcgNDIuNjY2NjY3djEyOGMwIDI1LjYtMTcuMDY2NjY3IDQyLjY2NjY2Ny00Mi42NjY2NjcgNDIuNjY2NjY2ek02NDAgMjEzLjMzMzMzM2MtMjUuNiAwLTQyLjY2NjY2Ny0xNy4wNjY2NjctNDIuNjY2NjY3LTQyLjY2NjY2NlY0Mi42NjY2NjdjMC0yNS42IDE3LjA2NjY2Ny00Mi42NjY2NjcgNDIuNjY2NjY3LTQyLjY2NjY2N3M0Mi42NjY2NjcgMTcuMDY2NjY3IDQyLjY2NjY2NyA0Mi42NjY2Njd2MTI4YzAgMjUuNi0xNy4wNjY2NjcgNDIuNjY2NjY3LTQyLjY2NjY2NyA0Mi42NjY2NjZ6TTM4NCAxMDI0Yy0yNS42IDAtNDIuNjY2NjY3LTE3LjA2NjY2Ny00Mi42NjY2NjctNDIuNjY2NjY3di0xMjhjMC0yNS42IDE3LjA2NjY2Ny00Mi42NjY2NjcgNDIuNjY2NjY3LTQyLjY2NjY2NnM0Mi42NjY2NjcgMTcuMDY2NjY3IDQyLjY2NjY2NyA0Mi42NjY2NjZ2MTI4YzAgMjUuNi0xNy4wNjY2NjcgNDIuNjY2NjY3LTQyLjY2NjY2NyA0Mi42NjY2Njd6TTY0MCAxMDI0Yy0yNS42IDAtNDIuNjY2NjY3LTE3LjA2NjY2Ny00Mi42NjY2NjctNDIuNjY2NjY3di0xMjhjMC0yNS42IDE3LjA2NjY2Ny00Mi42NjY2NjcgNDIuNjY2NjY3LTQyLjY2NjY2NnM0Mi42NjY2NjcgMTcuMDY2NjY3IDQyLjY2NjY2NyA0Mi42NjY2NjZ2MTI4YzAgMjUuNi0xNy4wNjY2NjcgNDIuNjY2NjY3LTQyLjY2NjY2NyA0Mi42NjY2Njd6TTk4MS4zMzMzMzMgNDI2LjY2NjY2N2gtMTI4Yy0yNS42IDAtNDIuNjY2NjY3LTE3LjA2NjY2Ny00Mi42NjY2NjYtNDIuNjY2NjY3czE3LjA2NjY2Ny00Mi42NjY2NjcgNDIuNjY2NjY2LTQyLjY2NjY2N2gxMjhjMjUuNiAwIDQyLjY2NjY2NyAxNy4wNjY2NjcgNDIuNjY2NjY3IDQyLjY2NjY2N3MtMTcuMDY2NjY3IDQyLjY2NjY2Ny00Mi42NjY2NjcgNDIuNjY2NjY3ek05ODEuMzMzMzMzIDY0MGgtMTI4Yy0yNS42IDAtNDIuNjY2NjY3LTE3LjA2NjY2Ny00Mi42NjY2NjYtNDIuNjY2NjY3czE3LjA2NjY2Ny00Mi42NjY2NjcgNDIuNjY2NjY2LTQyLjY2NjY2NmgxMjhjMjUuNiAwIDQyLjY2NjY2NyAxNy4wNjY2NjcgNDIuNjY2NjY3IDQyLjY2NjY2NnMtMTcuMDY2NjY3IDQyLjY2NjY2Ny00Mi42NjY2NjcgNDIuNjY2NjY3ek0xNzAuNjY2NjY3IDQyNi42NjY2NjdINDIuNjY2NjY3Yy0yNS42IDAtNDIuNjY2NjY3LTE3LjA2NjY2Ny00Mi42NjY2NjctNDIuNjY2NjY3czE3LjA2NjY2Ny00Mi42NjY2NjcgNDIuNjY2NjY3LTQyLjY2NjY2N2gxMjhjMjUuNiAwIDQyLjY2NjY2NyAxNy4wNjY2NjcgNDIuNjY2NjY2IDQyLjY2NjY2N3MtMTcuMDY2NjY3IDQyLjY2NjY2Ny00Mi42NjY2NjYgNDIuNjY2NjY3ek0xNzAuNjY2NjY3IDY0MEg0Mi42NjY2NjdjLTI1LjYgMC00Mi42NjY2NjctMTcuMDY2NjY3LTQyLjY2NjY2Ny00Mi42NjY2NjdzMTcuMDY2NjY3LTQyLjY2NjY2NyA0Mi42NjY2NjctNDIuNjY2NjY2aDEyOGMyNS42IDAgNDIuNjY2NjY3IDE3LjA2NjY2NyA0Mi42NjY2NjYgNDIuNjY2NjY2cy0xNy4wNjY2NjcgNDIuNjY2NjY3LTQyLjY2NjY2NiA0Mi42NjY2Njd6Ii8+PC9zdmc+;" vertex="1" parent="fhOW-cIPzGvx0NEOiK8O-40">
          <mxGeometry x="166.95" y="80" width="20" height="20" as="geometry" />
        </mxCell>
        <mxCell id="fhOW-cIPzGvx0NEOiK8O-49" value="" style="edgeStyle=orthogonalEdgeStyle;rounded=1;orthogonalLoop=1;jettySize=auto;html=1;curved=0;" edge="1" parent="fhOW-cIPzGvx0NEOiK8O-40" source="fhOW-cIPzGvx0NEOiK8O-50" target="fhOW-cIPzGvx0NEOiK8O-42">
          <mxGeometry relative="1" as="geometry" />
        </mxCell>
        <mxCell id="fhOW-cIPzGvx0NEOiK8O-50" value="" style="shape=image;verticalLabelPosition=bottom;labelBackgroundColor=default;verticalAlign=top;aspect=fixed;imageAspect=0;image=data:image/svg+xml,PHN2ZyB4bWxuczp4bGluaz0iaHR0cDovL3d3dy53My5vcmcvMTk5OS94bGluayIgeG1sbnM9Imh0dHA6Ly93d3cudzMub3JnLzIwMDAvc3ZnIiBoZWlnaHQ9IjIwMCIgd2lkdGg9IjMzOS4wNjI1IiB2ZXJzaW9uPSIxLjEiIHZpZXdCb3g9IjAgMCAxNzM2IDEwMjQiIGNsYXNzPSJpY29uIj48cGF0aCBmaWxsPSIjNDI1NzY2IiBkPSJNMjEwLjQwOTczOSAxMTQuMDY0Njk2VjI4LjMxNTgyNkEyOC4xMzc3MzkgMjguMTM3NzM5IDAgMCAwIDE4Mi4yNzIgMEgyOC4zMTU4MjZhMjguMzE1ODI2IDI4LjMxNTgyNiAwIDAgMCAwIDU2LjYzMTY1MmgxMjUuOTUydjE4OS40NEgyOC4zMTU4MjZ2NDQuMTIxMDQ0aDEyNS45NTJ2NTUuMzg1MDQzSDI4LjMxNTgyNnYzMDcuODY3ODI2aDEyNS45NTJ2NTUuMjA2OTU3SDI4LjMxNTgyNnY0My44MDkzOTFoMTI1Ljk1MnYyMDkuMzQxMjE3YzAgMTUuNjI3MTMgMTIuNDY2MDg3IDI4LjAwNDE3NCAyOC4xMzc3MzkgMjguMDA0MTc0YTI3LjkxNTEzIDI3LjkxNTEzIDAgMCAwIDI4LjE4MjI2MS0yOC4wMDQxNzR2LTc3LjQ2NzgyNmgxMTAuODU5MTMxdjEuNjAyNzgzYzAuMTc4MDg3IDMuNTYxNzM5IDcuNTY4Njk2IDk0LjAyOTkxMyA0NS43MjM4MjYgOTQuMDI5OTEzaDcwOC44MzA2MDhjMzguMTU1MTMgMCA0NS41NDU3MzktOTMuMjczMDQzIDQ1Ljg1NzM5Mi05NC4yMDh2LTEuNTU4MjYxaDQ2Ljc0NzgyNnYxLjU1ODI2MWMwIDAuOTM0OTU3IDguMDEzOTEzIDk0LjIwOCA0Ni4xNjkwNDMgOTQuMjA4aDMyMy4yMjc4MjZjMzguNDY2NzgzIDAgNDUuODEyODctOTMuMjczMDQzIDQ2LjEyNDUyMi05NC4yMDh2LTEuNTU4MjYxaDEzOS4wODU5MTNWMTE0LjA2NDY5NkgyMTAuNDA5NzM5eiBtMTI1LjY0MDM0OCAzMTguNTA4NTIxSDg4MS4wODUyMTdhMzguNzMzOTEzIDM4LjczMzkxMyAwIDAgMSAwIDc3LjQ2NzgyNkgzMzYuMDUwMDg3YTM4LjY0NDg3IDM4LjY0NDg3IDAgMCAxLTM4LjE5OTY1Mi0zOC44MjI5NTZjMC0yMS4yODEzOTEgMTcuMDUxODI2LTM4LjY0NDg3IDM4LjE5OTY1Mi0zOC42NDQ4N20wIDIzMS42OTExMzFhMzguNjQ0ODcgMzguNjQ0ODcgMCAwIDEgMC03Ny4yODk3MzlIODgxLjA4NTIxN2EzOC42NDQ4NyAzOC42NDQ4NyAwIDAgMSAwIDc3LjI4OTczOUgzMzYuMDUwMDg3eiBtNzM2LjY1NjY5NiAyODMuOTE1MTNIMzcwLjI4NzMwNGExMzIuMjI5NTY1IDEzMi4yMjk1NjUgMCAwIDEtMTUuMDAzODI2LTQ3LjY4Mjc4Mmg3MzIuNzgzMzA1Yy0zLjc4NDM0OCAyMC45MjUyMTctMTAuMTk1NDc4IDQxLjQwNTIxNy0xNS4zNiA0Ny42ODI3ODJtNDYyLjMxMzczOSAwaC0zMTcuMjYxOTEzYTE0MS41NzkxMyAxNDEuNTc5MTMgMCAwIDEtMTUuMTgxOTEzLTQ3LjY4Mjc4MmgzNDcuNzU5MzA0YTE0NS45NDIyNjEgMTQ1Ljk0MjI2MSAwIDAgMS0xNS4zMTU0NzggNDcuNjgyNzgybS0yMTYuOTk4OTU3LTEzOS4wODU5MTNBMzA0LjUyODY5NiAzMDQuNTI4Njk2IDAgMSAxIDEzMTcuODQzNDc4IDIwMC4wODA2OTZhMzA0LjUyODY5NiAzMDQuNTI4Njk2IDAgMCAxIDAuMTc4MDg3IDYwOS4wNTczOTEiLz48cGF0aCBmaWxsPSIjNDI1NzY2IiBkPSJNMTQ4MC4yNTg3ODMgMzI2LjQ3NzkxM2E0NzcuMTM5NDc4IDQ3Ny4xMzk0NzggMCAwIDAtMTE2LjczNiA5MC45MTMzOTEgOTMuMjI4NTIyIDkzLjIyODUyMiAwIDAgMC00Mi4yMDY2MDktMTEuNDQyMDg3YzQuODUyODctNDAuNTE0NzgzIDIwLjQ4LTg3LjcwNzgyNiA1OC4zMjM0NzgtMTQ5LjM3MDQzNGgtMTIzLjU5MjM0OGMtOC41OTI2OTYgNzMuNTA1MzkxLTMuMTE2NTIyIDEyNC4zNDkyMTcgOS41NzIxNzQgMTY0LjQxODc4Mi0xMi43MzMyMTcgOC4wMTM5MTMtMjMuNTA3NDc4IDE4LjgzMjY5Ni0zMS40MzIzNDggMzEuNjEwNDM1YTQ1Ni40ODEzOTEgNDU2LjQ4MTM5MSAwIDAgMS05OS41MDYwODctMTAzLjYwMjA4N2MtMTcuMDUxODI2IDM3Ljg0MzQ3OC0zMy45NzAwODcgNjMuNTMyNTIyLTYyLjI4NTkxMyA4NS4yNTkxMyA1OC4zMjM0NzggNDQuMTIxMDQzIDEwNS45NjE3MzkgNjUuMDkwNzgzIDE0Ni42MTAwODcgNzQuMzUxMzA1IDAuODkwNDM1IDE1Ljc2MDY5NiA0Ljk4NjQzNSAyOS42OTYgMTEuODg3MzA1IDQyLjY5NjM0OC0zNy41NzYzNDggMTYuMjUwNDM1LTg2LjgxNzM5MSAyNS42NDQ1MjItMTU4LjYzMDk1NyAyMy45MDgxNzQgMzQuMjgxNzM5IDQzLjgwOTM5MSA2NS4wNDYyNjEgNzUuNTk3OTEzIDgzLjM4OTIxOCAxMDcuNjUzNTY1IDUxLjI4OTA0My0yOS4yNTA3ODMgODguNTA5MjE3LTU5LjkyNjI2MSAxMTYuMzc5ODI2LTkwLjQyMzY1MiAxMy4wODkzOTEgNi44NTYzNDggMjcuNjAzNDc4IDEwLjY4NTIxNyA0Mi4zODQ2OTUgMTEuMTMwNDM0LTQuNjc0NzgzIDQwLjMzNjY5Ni0yMC4xNjgzNDggODcuODg1OTEzLTU4LjMyMzQ3OCAxNDkuMzcwNDM1aDEyMy43MjU5MTNjOC45MDQzNDgtNzMuNjgzNDc4IDMuMTE2NTIyLTEyNC41MjczMDQtOC45MDQzNDgtMTY0LjQxODc4MmExMDYuODUyMTc0IDEwNi44NTIxNzQgMCAwIDAgMzEuNDMyMzQ4LTMxLjc0NGMzMi4zNjczMDQgMjMuNTk2NTIyIDY1LjA5MDc4MyA1Ni45NDMzMDQgOTkuMDE2MzQ4IDEwMy43MzU2NTIgMTcuMDUxODI2LTM3Ljg4OCAzMy45NzAwODctNjMuNjY2MDg3IDYyLjI4NTkxMy04NS43NDg4Ny01OC45OTEzMDQtNDMuODA5MzkxLTEwNi4wOTUzMDQtNjQuNzc5MTMtMTQ2LjkyMTczOS03NC40ODQ4NjlhOTcuNjM2MTc0IDk3LjYzNjE3NCAwIDAgMC0xMS41NzU2NTItNDIuMDczMDQ0YzM3LjUzMTgyNi0xNi4yNTA0MzUgODYuNTA1NzM5LTI1LjgyMjYwOSAxNTguNjMwOTU2LTIzLjk1MjY5Ni0zNC41NDg4Ny00My43NjQ4Ny02NS4yMjQzNDgtNzUuODY1MDQzLTgzLjUyMjc4Mi0xMDcuNzQyNjA4bS0xNjIuMjM3MjE4IDIwOS4yNTIxNzRhMzAuODA5MDQzIDMwLjgwOTA0MyAwIDEgMSAzMC44MDkwNDQtMzAuNzY0NTIyIDMxLjI5ODc4MyAzMS4yOTg3ODMgMCAwIDEtMzAuODA5MDQ0IDMwLjgwOTA0MyIvPjwvc3ZnPg==;" vertex="1" parent="fhOW-cIPzGvx0NEOiK8O-40">
          <mxGeometry x="160" y="40" width="33.9" height="20" as="geometry" />
        </mxCell>
        <mxCell id="fhOW-cIPzGvx0NEOiK8O-76" value="" style="endArrow=classic;startArrow=classic;html=1;rounded=1;entryX=0;entryY=0.5;entryDx=0;entryDy=0;exitX=0.75;exitY=0;exitDx=0;exitDy=0;dashed=1;curved=0;" edge="1" parent="1" target="fhOW-cIPzGvx0NEOiK8O-51">
          <mxGeometry width="50" height="50" relative="1" as="geometry">
            <mxPoint x="120" y="450" as="sourcePoint" />
            <mxPoint x="218.5" y="172" as="targetPoint" />
            <Array as="points">
              <mxPoint x="120" y="152" />
            </Array>
          </mxGeometry>
        </mxCell>
        <mxCell id="fhOW-cIPzGvx0NEOiK8O-77" value="&lt;font face=&quot;Comic Sans MS&quot;&gt;actor &amp;amp; remote instance pair&lt;/font&gt;" style="edgeLabel;html=1;align=center;verticalAlign=middle;resizable=0;points=[];" vertex="1" connectable="0" parent="fhOW-cIPzGvx0NEOiK8O-76">
          <mxGeometry x="-0.0724" y="-2" relative="1" as="geometry">
            <mxPoint as="offset" />
          </mxGeometry>
        </mxCell>
      </root>
    </mxGraphModel>
  </diagram>
</mxfile>
